<svg width="968" height="125" viewBox="0 0 968 125" fill="none" xmlns="http://www.w3.org/2000/svg">
<path d="M117.412 87.8927C112.034 98.8104 103.326 107.784 92.5155 113.548C81.7046 119.313 69.336 121.578 57.1544 120.022C44.9724 118.467 33.5915 113.171 24.6162 104.882C15.6408 96.5914 9.52368 85.7254 7.12735 73.8153C4.73103 61.9055 6.17629 49.5522 11.2595 38.4973C16.3426 27.4425 24.8072 18.2439 35.4596 12.1984C46.1124 6.15298 58.4158 3.56545 70.6349 4.80107C82.8541 6.03628 94.3729 11.0322 103.567 19.0845C96.2261 27.2776 83.3981 27.3621 72.5604 25.1251C71.2549 24.8554 69.9316 24.6522 68.5955 24.5171C60.5518 23.7038 52.4523 25.4071 45.44 29.3869C38.4273 33.3664 32.8551 39.422 29.5089 46.699C26.1626 53.9764 25.2112 62.1087 26.7887 69.9489C28.366 77.7894 32.3929 84.9424 38.3014 90.3998C44.21 95.8568 51.7019 99.3429 59.7213 100.367C67.7407 101.39 75.8827 99.8999 82.9994 96.1049C84.1811 95.4749 85.3253 94.7861 86.4269 94.0434C95.5736 87.8759 107.458 83.1008 117.412 87.8927Z" fill="#735DF3"/>
<path d="M57.7525 70.901C68.4127 63.6449 81.3727 60.4571 94.2292 61.9281C103.931 63.0385 113.076 66.7445 120.72 72.5664C124.529 75.4673 123.565 81.0786 119.329 83.3262C113.601 77.091 102.453 77.0424 94.7641 79.3484C91.0064 80.7631 86.2015 84.0387 81.8953 87.7912C76.619 92.3893 68.4312 93.7481 63.4708 88.8183C57.3913 82.7765 51.7576 74.9817 57.7525 70.901Z" fill="#735DF3"/>
<path d="M164.265 120.5C150.146 120.5 139.313 114.363 133.836 103.293L148.198 95.5913C150.876 100.766 155.866 104.857 164.021 104.857C174.245 104.857 181.183 97.7573 181.183 86.0851V85.0021C177.897 89.0934 172.054 92.222 163.534 92.222C146.616 92.222 133.105 79.2261 133.105 61.5373C133.105 44.3299 147.224 30.251 165.725 30.251C184.591 30.251 198.466 43.6079 198.466 61.5373V85.6037C198.466 106.782 183.861 120.5 164.265 120.5ZM165.482 76.0975C174.123 76.0975 180.939 69.7199 180.939 61.1763C180.939 52.6328 174.123 46.3755 165.482 46.3755C156.962 46.3755 150.146 52.6328 150.146 61.1763C150.146 69.7199 156.962 76.0975 165.482 76.0975ZM239.711 93.0643C222.184 93.0643 209.891 78.8651 209.891 61.5373C209.891 44.4502 224.009 30.1307 242.51 30.1307C261.376 30.1307 275.252 43.6079 275.252 61.5373V91.5H258.82V84.5207C254.56 89.8154 247.987 93.0643 239.711 93.0643ZM242.51 77.0602C251.395 77.0602 257.968 70.0809 257.968 61.6577C257.968 53.2344 251.395 46.2552 242.51 46.2552C233.625 46.2552 227.174 53.2344 227.174 61.6577C227.174 70.0809 233.625 77.0602 242.51 77.0602ZM321.121 46.8568C311.384 46.8568 307.002 54.6784 307.002 63.8236V91.5H289.719V61.778C289.719 44.4502 300.064 30.251 321.121 30.251C342.178 30.251 352.767 44.3299 352.767 61.778V91.5H335.483V63.8236C335.483 54.6784 330.98 46.8568 321.121 46.8568ZM396.794 93.1847C378.293 93.1847 364.174 78.9855 364.174 61.778C364.174 43.2469 377.076 30.251 395.82 30.251C401.906 30.251 407.748 32.417 412.13 35.9066L412.252 4.5H429.535V61.778C429.535 79.8278 415.66 93.1847 396.794 93.1847ZM396.794 77.0602C405.679 77.0602 412.252 70.2012 412.252 61.778C412.252 53.3548 405.679 46.3755 396.794 46.3755C387.909 46.3755 381.458 53.3548 381.458 61.778C381.458 70.2012 387.909 77.0602 396.794 77.0602ZM473.577 93.0643C455.076 93.0643 440.957 78.8651 440.957 61.5373C440.957 44.3299 455.198 30.1307 473.577 30.1307C492.199 30.1307 506.318 44.4502 506.318 61.5373C506.318 78.8651 492.078 93.0643 473.577 93.0643ZM473.577 77.0602C482.462 77.0602 489.035 70.0809 489.035 61.6577C489.035 53.2344 482.462 46.2552 473.577 46.2552C464.692 46.2552 458.241 53.2344 458.241 61.6577C458.241 70.0809 464.692 77.0602 473.577 77.0602Z" fill="#735DF3"/>
<path d="M562.078 96.152C557.214 96.152 552.862 95.32 549.022 93.656C545.246 91.992 542.238 89.56 539.998 86.36C537.822 83.16 536.702 79.288 536.638 74.744H550.366C550.43 76.728 550.942 78.52 551.902 80.12C552.862 81.72 554.174 83 555.838 83.96C557.566 84.856 559.614 85.304 561.982 85.304C564.03 85.304 565.79 84.984 567.262 84.344C568.798 83.64 569.982 82.68 570.814 81.464C571.646 80.248 572.062 78.808 572.062 77.144C572.062 75.224 571.582 73.624 570.622 72.344C569.726 71.064 568.446 69.976 566.782 69.08C565.182 68.184 563.294 67.384 561.118 66.68C559.006 65.912 556.766 65.112 554.398 64.28C549.086 62.552 545.022 60.248 542.206 57.368C539.454 54.488 538.078 50.68 538.078 45.944C538.078 41.912 539.038 38.456 540.958 35.576C542.942 32.696 545.662 30.488 549.118 28.952C552.574 27.416 556.51 26.648 560.926 26.648C565.47 26.648 569.438 27.448 572.83 29.048C576.286 30.584 579.006 32.824 580.99 35.768C583.038 38.712 584.094 42.168 584.158 46.136H570.334C570.27 44.664 569.822 43.288 568.99 42.008C568.222 40.664 567.134 39.608 565.726 38.84C564.318 38.008 562.654 37.592 560.734 37.592C559.07 37.528 557.534 37.784 556.126 38.36C554.782 38.936 553.694 39.8 552.862 40.952C552.094 42.04 551.71 43.416 551.71 45.08C551.71 46.68 552.094 48.024 552.862 49.112C553.694 50.2 554.814 51.16 556.222 51.992C557.63 52.76 559.294 53.496 561.214 54.2C563.134 54.84 565.214 55.512 567.454 56.216C570.782 57.368 573.854 58.744 576.67 60.344C579.486 61.88 581.726 63.896 583.39 66.392C585.054 68.888 585.886 72.184 585.886 76.28C585.886 79.8 584.958 83.064 583.102 86.072C581.246 89.08 578.558 91.512 575.038 93.368C571.582 95.224 567.262 96.152 562.078 96.152ZM622.896 96.152C617.968 96.152 613.488 95.16 609.456 93.176C605.424 91.192 602.224 88.216 599.856 84.248C597.488 80.28 596.304 75.224 596.304 69.08V27.8H609.264V69.176C609.264 72.504 609.808 75.32 610.896 77.624C611.984 79.864 613.552 81.528 615.6 82.616C617.712 83.704 620.208 84.248 623.088 84.248C626.032 84.248 628.528 83.704 630.576 82.616C632.688 81.528 634.288 79.864 635.376 77.624C636.464 75.32 637.008 72.504 637.008 69.176V27.8H649.968V69.08C649.968 75.224 648.752 80.28 646.32 84.248C643.888 88.216 640.592 91.192 636.432 93.176C632.336 95.16 627.824 96.152 622.896 96.152ZM662.599 95V27.8H687.751C693.191 27.8 697.703 28.728 701.287 30.584C704.871 32.44 707.527 34.936 709.255 38.072C710.983 41.208 711.847 44.792 711.847 48.824C711.847 52.536 711.015 55.96 709.351 59.096C707.687 62.232 705.063 64.792 701.479 66.776C697.895 68.696 693.319 69.656 687.751 69.656H675.559V95H662.599ZM675.559 59.192H686.983C691.143 59.192 694.119 58.264 695.911 56.408C697.767 54.488 698.695 51.96 698.695 48.824C698.695 45.496 697.767 42.936 695.911 41.144C694.119 39.288 691.143 38.36 686.983 38.36H675.559V59.192ZM721.567 95V27.8H746.719C752.159 27.8 756.671 28.728 760.255 30.584C763.839 32.44 766.495 34.936 768.223 38.072C769.951 41.208 770.815 44.792 770.815 48.824C770.815 52.536 769.983 55.96 768.319 59.096C766.655 62.232 764.031 64.792 760.447 66.776C756.863 68.696 752.287 69.656 746.719 69.656H734.527V95H721.567ZM734.527 59.192H745.951C750.111 59.192 753.087 58.264 754.879 56.408C756.735 54.488 757.663 51.96 757.663 48.824C757.663 45.496 756.735 42.936 754.879 41.144C753.087 39.288 750.111 38.36 745.951 38.36H734.527V59.192ZM811.544 96.152C805.016 96.152 799.256 94.68 794.264 91.736C789.272 88.792 785.368 84.728 782.552 79.544C779.736 74.296 778.328 68.248 778.328 61.4C778.328 54.552 779.736 48.536 782.552 43.352C785.368 38.104 789.272 34.008 794.264 31.064C799.256 28.12 805.016 26.648 811.544 26.648C818.136 26.648 823.928 28.12 828.92 31.064C833.912 34.008 837.784 38.104 840.536 43.352C843.352 48.536 844.76 54.552 844.76 61.4C844.76 68.248 843.352 74.296 840.536 79.544C837.784 84.728 833.912 88.792 828.92 91.736C823.928 94.68 818.136 96.152 811.544 96.152ZM811.544 84.536C815.64 84.536 819.16 83.608 822.104 81.752C825.112 79.832 827.448 77.144 829.112 73.688C830.776 70.232 831.608 66.136 831.608 61.4C831.608 56.6 830.776 52.504 829.112 49.112C827.448 45.656 825.112 43 822.104 41.144C819.16 39.288 815.64 38.36 811.544 38.36C807.512 38.36 803.992 39.288 800.984 41.144C797.976 43 795.64 45.656 793.976 49.112C792.312 52.504 791.48 56.6 791.48 61.4C791.48 66.136 792.312 70.232 793.976 73.688C795.64 77.144 797.976 79.832 800.984 81.752C803.992 83.608 807.512 84.536 811.544 84.536ZM855.817 95V27.8H880.873C886.313 27.8 890.793 28.728 894.313 30.584C897.833 32.44 900.457 34.936 902.185 38.072C903.913 41.144 904.777 44.568 904.777 48.344C904.777 51.928 903.945 55.288 902.281 58.424C900.617 61.496 897.993 63.992 894.409 65.912C890.889 67.768 886.345 68.696 880.777 68.696H868.777V95H855.817ZM890.665 95L876.841 65.432H890.857L905.449 95H890.665ZM868.777 59.288H880.105C884.009 59.288 886.889 58.328 888.745 56.408C890.601 54.488 891.529 51.96 891.529 48.824C891.529 45.688 890.601 43.224 888.745 41.432C886.953 39.576 884.073 38.648 880.105 38.648H868.777V59.288ZM932.028 95V38.264H912.348V27.8H964.476V38.264H944.892V95H932.028Z" fill="#F1F8FF"/>
</svg>
