<svg width="968" height="125" viewBox="0 0 968 125" fill="none" xmlns="http://www.w3.org/2000/svg">
<path d="M117.412 87.8927C112.034 98.8104 103.326 107.784 92.5155 113.548C81.7046 119.313 69.336 121.578 57.1544 120.022C44.9724 118.467 33.5915 113.171 24.6162 104.882C15.6408 96.5914 9.52368 85.7254 7.12735 73.8153C4.73103 61.9055 6.17629 49.5522 11.2595 38.4973C16.3426 27.4425 24.8072 18.2439 35.4596 12.1984C46.1124 6.15298 58.4158 3.56545 70.6349 4.80107C82.8541 6.03628 94.3729 11.0322 103.567 19.0845C96.2261 27.2776 83.3981 27.3621 72.5604 25.1251C71.2549 24.8554 69.9316 24.6522 68.5955 24.5171C60.5518 23.7038 52.4523 25.4071 45.44 29.3869C38.4273 33.3664 32.8551 39.422 29.5089 46.699C26.1626 53.9764 25.2112 62.1087 26.7887 69.9489C28.366 77.7894 32.3929 84.9424 38.3014 90.3998C44.21 95.8568 51.7019 99.3429 59.7213 100.367C67.7407 101.39 75.8827 99.8999 82.9994 96.1049C84.1811 95.4749 85.3253 94.7861 86.4269 94.0434C95.5736 87.8759 107.458 83.1008 117.412 87.8927Z" fill="#735DF3"/>
<path d="M57.753 70.901C68.4132 63.6449 81.3732 60.4571 94.2297 61.9281C103.931 63.0385 113.077 66.7445 120.72 72.5664C124.529 75.4673 123.566 81.0786 119.329 83.3262C113.601 77.091 102.453 77.0424 94.7646 79.3484C91.0069 80.7631 86.202 84.0387 81.8958 87.7912C76.6195 92.3893 68.4317 93.7481 63.4713 88.8183C57.3918 82.7765 51.7581 74.9817 57.753 70.901Z" fill="#735DF3"/>
<path d="M164.265 120.5C150.146 120.5 139.313 114.363 133.836 103.293L148.199 95.5913C150.876 100.766 155.867 104.857 164.022 104.857C174.246 104.857 181.183 97.7573 181.183 86.0851V85.0021C177.897 89.0934 172.055 92.222 163.535 92.222C146.616 92.222 133.106 79.2261 133.106 61.5373C133.106 44.3299 147.225 30.251 165.726 30.251C184.591 30.251 198.467 43.6079 198.467 61.5373V85.6037C198.467 106.782 183.861 120.5 164.265 120.5ZM165.482 76.0975C174.124 76.0975 180.94 69.7199 180.94 61.1763C180.94 52.6328 174.124 46.3755 165.482 46.3755C156.962 46.3755 150.146 52.6328 150.146 61.1763C150.146 69.7199 156.962 76.0975 165.482 76.0975ZM239.711 93.0643C222.184 93.0643 209.891 78.8651 209.891 61.5373C209.891 44.4502 224.01 30.1307 242.511 30.1307C261.377 30.1307 275.252 43.6079 275.252 61.5373V91.5H258.82V84.5207C254.56 89.8154 247.988 93.0643 239.711 93.0643ZM242.511 77.0602C251.396 77.0602 257.968 70.0809 257.968 61.6577C257.968 53.2344 251.396 46.2552 242.511 46.2552C233.625 46.2552 227.175 53.2344 227.175 61.6577C227.175 70.0809 233.625 77.0602 242.511 77.0602ZM321.121 46.8568C311.384 46.8568 307.003 54.6784 307.003 63.8236V91.5H289.719V61.778C289.719 44.4502 300.065 30.251 321.121 30.251C342.178 30.251 352.767 44.3299 352.767 61.778V91.5H335.484V63.8236C335.484 54.6784 330.98 46.8568 321.121 46.8568ZM396.794 93.1847C378.294 93.1847 364.175 78.9855 364.175 61.778C364.175 43.2469 377.077 30.251 395.821 30.251C401.906 30.251 407.749 32.417 412.131 35.9066L412.252 4.5H429.536V61.778C429.536 79.8278 415.66 93.1847 396.794 93.1847ZM396.794 77.0602C405.68 77.0602 412.252 70.2012 412.252 61.778C412.252 53.3548 405.68 46.3755 396.794 46.3755C387.909 46.3755 381.458 53.3548 381.458 61.778C381.458 70.2012 387.909 77.0602 396.794 77.0602ZM473.578 93.0643C455.077 93.0643 440.958 78.8651 440.958 61.5373C440.958 44.3299 455.199 30.1307 473.578 30.1307C492.2 30.1307 506.319 44.4502 506.319 61.5373C506.319 78.8651 492.078 93.0643 473.578 93.0643ZM473.578 77.0602C482.463 77.0602 489.035 70.0809 489.035 61.6577C489.035 53.2344 482.463 46.2552 473.578 46.2552C464.692 46.2552 458.242 53.2344 458.242 61.6577C458.242 70.0809 464.692 77.0602 473.578 77.0602Z" fill="#735DF3"/>
<path d="M562.079 96.152C557.215 96.152 552.863 95.32 549.023 93.656C545.247 91.992 542.239 89.56 539.999 86.36C537.823 83.16 536.703 79.288 536.639 74.744H550.367C550.431 76.728 550.943 78.52 551.903 80.12C552.863 81.72 554.175 83 555.839 83.96C557.567 84.856 559.615 85.304 561.983 85.304C564.031 85.304 565.791 84.984 567.263 84.344C568.799 83.64 569.983 82.68 570.815 81.464C571.647 80.248 572.063 78.808 572.063 77.144C572.063 75.224 571.583 73.624 570.623 72.344C569.727 71.064 568.447 69.976 566.783 69.08C565.183 68.184 563.295 67.384 561.119 66.68C559.007 65.912 556.767 65.112 554.399 64.28C549.087 62.552 545.023 60.248 542.207 57.368C539.455 54.488 538.079 50.68 538.079 45.944C538.079 41.912 539.039 38.456 540.959 35.576C542.943 32.696 545.663 30.488 549.119 28.952C552.575 27.416 556.511 26.648 560.927 26.648C565.471 26.648 569.439 27.448 572.831 29.048C576.287 30.584 579.007 32.824 580.991 35.768C583.039 38.712 584.095 42.168 584.159 46.136H570.335C570.271 44.664 569.823 43.288 568.991 42.008C568.223 40.664 567.135 39.608 565.727 38.84C564.319 38.008 562.655 37.592 560.735 37.592C559.071 37.528 557.535 37.784 556.127 38.36C554.783 38.936 553.695 39.8 552.863 40.952C552.095 42.04 551.711 43.416 551.711 45.08C551.711 46.68 552.095 48.024 552.863 49.112C553.695 50.2 554.815 51.16 556.223 51.992C557.631 52.76 559.295 53.496 561.215 54.2C563.135 54.84 565.215 55.512 567.455 56.216C570.783 57.368 573.855 58.744 576.671 60.344C579.487 61.88 581.727 63.896 583.391 66.392C585.055 68.888 585.887 72.184 585.887 76.28C585.887 79.8 584.959 83.064 583.103 86.072C581.247 89.08 578.559 91.512 575.039 93.368C571.583 95.224 567.263 96.152 562.079 96.152ZM622.896 96.152C617.968 96.152 613.488 95.16 609.456 93.176C605.424 91.192 602.224 88.216 599.856 84.248C597.488 80.28 596.304 75.224 596.304 69.08V27.8H609.264V69.176C609.264 72.504 609.808 75.32 610.896 77.624C611.984 79.864 613.552 81.528 615.6 82.616C617.712 83.704 620.208 84.248 623.088 84.248C626.032 84.248 628.528 83.704 630.576 82.616C632.688 81.528 634.288 79.864 635.376 77.624C636.464 75.32 637.008 72.504 637.008 69.176V27.8H649.968V69.08C649.968 75.224 648.752 80.28 646.32 84.248C643.888 88.216 640.592 91.192 636.432 93.176C632.336 95.16 627.824 96.152 622.896 96.152ZM662.599 95V27.8H687.751C693.191 27.8 697.703 28.728 701.287 30.584C704.871 32.44 707.527 34.936 709.255 38.072C710.983 41.208 711.847 44.792 711.847 48.824C711.847 52.536 711.015 55.96 709.351 59.096C707.687 62.232 705.063 64.792 701.479 66.776C697.895 68.696 693.319 69.656 687.751 69.656H675.559V95H662.599ZM675.559 59.192H686.983C691.143 59.192 694.119 58.264 695.911 56.408C697.767 54.488 698.695 51.96 698.695 48.824C698.695 45.496 697.767 42.936 695.911 41.144C694.119 39.288 691.143 38.36 686.983 38.36H675.559V59.192ZM721.568 95V27.8H746.72C752.16 27.8 756.672 28.728 760.256 30.584C763.84 32.44 766.496 34.936 768.224 38.072C769.952 41.208 770.816 44.792 770.816 48.824C770.816 52.536 769.984 55.96 768.32 59.096C766.656 62.232 764.032 64.792 760.448 66.776C756.864 68.696 752.288 69.656 746.72 69.656H734.528V95H721.568ZM734.528 59.192H745.952C750.112 59.192 753.088 58.264 754.88 56.408C756.736 54.488 757.664 51.96 757.664 48.824C757.664 45.496 756.736 42.936 754.88 41.144C753.088 39.288 750.112 38.36 745.952 38.36H734.528V59.192ZM811.545 96.152C805.017 96.152 799.257 94.68 794.265 91.736C789.273 88.792 785.369 84.728 782.553 79.544C779.737 74.296 778.329 68.248 778.329 61.4C778.329 54.552 779.737 48.536 782.553 43.352C785.369 38.104 789.273 34.008 794.265 31.064C799.257 28.12 805.017 26.648 811.545 26.648C818.137 26.648 823.929 28.12 828.921 31.064C833.913 34.008 837.785 38.104 840.537 43.352C843.353 48.536 844.761 54.552 844.761 61.4C844.761 68.248 843.353 74.296 840.537 79.544C837.785 84.728 833.913 88.792 828.921 91.736C823.929 94.68 818.137 96.152 811.545 96.152ZM811.545 84.536C815.641 84.536 819.161 83.608 822.105 81.752C825.113 79.832 827.449 77.144 829.113 73.688C830.777 70.232 831.609 66.136 831.609 61.4C831.609 56.6 830.777 52.504 829.113 49.112C827.449 45.656 825.113 43 822.105 41.144C819.161 39.288 815.641 38.36 811.545 38.36C807.513 38.36 803.993 39.288 800.985 41.144C797.977 43 795.641 45.656 793.977 49.112C792.313 52.504 791.481 56.6 791.481 61.4C791.481 66.136 792.313 70.232 793.977 73.688C795.641 77.144 797.977 79.832 800.985 81.752C803.993 83.608 807.513 84.536 811.545 84.536ZM855.818 95V27.8H880.874C886.314 27.8 890.794 28.728 894.314 30.584C897.834 32.44 900.458 34.936 902.186 38.072C903.914 41.144 904.778 44.568 904.778 48.344C904.778 51.928 903.946 55.288 902.282 58.424C900.618 61.496 897.994 63.992 894.41 65.912C890.89 67.768 886.346 68.696 880.778 68.696H868.778V95H855.818ZM890.666 95L876.842 65.432H890.858L905.45 95H890.666ZM868.778 59.288H880.106C884.01 59.288 886.89 58.328 888.746 56.408C890.602 54.488 891.53 51.96 891.53 48.824C891.53 45.688 890.602 43.224 888.746 41.432C886.954 39.576 884.074 38.648 880.106 38.648H868.778V59.288ZM932.028 95V38.264H912.348V27.8H964.476V38.264H944.892V95H932.028Z" fill="#001B39"/>
</svg>
