<svg width="835" height="521" viewBox="0 0 835 521" fill="none" xmlns="http://www.w3.org/2000/svg">
<g clip-path="url(#clip0_6780_7009)">
<rect width="835" height="521" rx="50" fill="#F6F5FB"/>
<path d="M-110.293 -39.67L419.728 112.471C527.274 143.343 630.918 192.09 726.402 256.711L975.219 425.105L-133.787 187.325L-110.293 -39.67Z" fill="#EFEEFA"/>
<path d="M-119.334 141.225L404.782 226.369C522.273 245.456 636.376 285.287 741.753 344.001L989.649 482.121L-129.556 384.837L-119.334 141.225Z" fill="#E9E6FA"/>
<path d="M-120.567 291.443L401.252 328.851C515.305 337.028 627.11 364.705 731.807 410.679L983.041 521L-120.567 521L-120.567 291.443Z" fill="#F6F5FB"/>
<path d="M-120.567 291.443L401.252 328.851C515.305 337.028 627.11 364.705 731.807 410.679L983.041 521L-120.567 521L-120.567 291.443Z" fill="#001B39" fill-opacity="0.1"/>
<path d="M-120.567 291.443L401.252 328.851C515.305 337.028 627.11 364.705 731.807 410.679L983.041 521L-120.567 521L-120.567 291.443Z" fill="#F6F5FB"/>
<path d="M-120.567 291.443L401.252 328.851C515.305 337.028 627.11 364.705 731.807 410.679L983.041 521L-120.567 521L-120.567 291.443Z" fill="#735DF3" fill-opacity="0.15"/>
<path d="M509.536 306.845C499.615 326.986 483.55 343.541 463.606 354.176C443.662 364.811 420.844 368.988 398.371 366.119C375.897 363.25 354.902 353.48 338.344 338.187C321.786 322.893 310.501 302.847 306.08 280.875C301.659 258.903 304.325 236.114 313.703 215.719C323.08 195.325 338.696 178.355 358.348 167.202C378 156.049 400.698 151.276 423.24 153.555C445.783 155.834 467.033 165.051 483.995 179.906C470.452 195.021 446.786 195.177 426.793 191.05C424.384 190.552 421.943 190.177 419.478 189.928C404.639 188.428 389.696 191.57 376.76 198.912C363.823 206.253 353.543 217.425 347.37 230.85C341.197 244.275 339.441 259.278 342.352 273.742C345.261 288.206 352.69 301.402 363.591 311.47C374.491 321.538 388.312 327.969 403.107 329.858C417.901 331.746 432.922 328.996 446.051 321.995C448.231 320.833 450.341 319.562 452.374 318.192C469.248 306.814 491.173 298.005 509.536 306.845Z" fill="#735DF3"/>
<path d="M399.475 275.498C419.142 262.112 443.051 256.231 466.769 258.945C484.666 260.993 501.538 267.83 515.639 278.571C522.666 283.922 520.889 294.274 513.073 298.421C502.506 286.918 481.94 286.828 467.756 291.082C460.823 293.692 451.959 299.735 444.015 306.658C434.281 315.141 419.176 317.647 410.025 308.553C398.809 297.407 388.416 283.027 399.475 275.498Z" fill="#735DF3"/>
</g>
<defs>
<clipPath id="clip0_6780_7009">
<rect width="835" height="521" rx="50" fill="white"/>
</clipPath>
</defs>
</svg>
