<svg width="600" height="600" viewBox="0 0 600 600" fill="none" xmlns="http://www.w3.org/2000/svg">
<rect width="600" height="600" rx="10" fill="#DFF7F9"/>
<g clip-path="url(#clip0_10118_19584)">
<path d="M67.2721 72.4639H532.728C537.593 72.4639 541.536 76.4134 541.536 81.2853V512.142C541.536 517.015 537.593 520.964 532.728 520.964H67.2721C62.4073 520.964 58.4636 517.015 58.4636 512.142V81.2853C58.4636 76.5657 62.1645 72.7121 66.8184 72.4757L67.2721 72.4639Z" fill="white"/>
<path d="M67.2721 72.4639H532.728C537.593 72.4639 541.536 76.4134 541.536 81.2853V512.142C541.536 517.015 537.593 520.964 532.728 520.964H67.2721C62.4073 520.964 58.4636 517.015 58.4636 512.142V81.2853C58.4636 76.5657 62.1645 72.7121 66.8184 72.4757L67.2721 72.4639Z" stroke="#D5D5D5"/>
<path d="M78.814 114.714L82.6266 104.314H84.2437L88.0563 114.714H86.469L83.4277 106.097L80.3717 114.714H78.814ZM80.5349 112.144L80.9502 110.955H85.831L86.2464 112.144H80.5349ZM88.0375 117.982V116.72H88.631C88.9871 116.72 89.2392 116.645 89.3876 116.497C89.536 116.348 89.6101 116.1 89.6101 115.754V107.226H91.0937V115.784C91.0937 116.299 91.0046 116.72 90.8266 117.046C90.6584 117.373 90.4062 117.611 90.07 117.76C89.7337 117.908 89.3283 117.982 88.8535 117.982H88.0375ZM90.3667 105.814C90.0799 105.814 89.8425 105.725 89.6546 105.547C89.4766 105.369 89.3876 105.141 89.3876 104.864C89.3876 104.596 89.4766 104.378 89.6546 104.21C89.8425 104.032 90.0799 103.942 90.3667 103.942C90.6436 103.942 90.8711 104.032 91.0491 104.21C91.237 104.378 91.331 104.596 91.331 104.864C91.331 105.141 91.237 105.369 91.0491 105.547C90.8711 105.725 90.6436 105.814 90.3667 105.814ZM96.6116 114.892C95.9095 114.892 95.2765 114.729 94.7127 114.402C94.1589 114.075 93.7188 113.619 93.3924 113.035C93.0759 112.441 92.9177 111.757 92.9177 110.985C92.9177 110.192 93.0808 109.504 93.4072 108.92C93.7336 108.325 94.1786 107.865 94.7424 107.538C95.3061 107.211 95.9391 107.048 96.6413 107.048C97.3534 107.048 97.9864 107.211 98.5402 107.538C99.094 107.865 99.5293 108.32 99.8457 108.905C100.172 109.489 100.335 110.177 100.335 110.97C100.335 111.762 100.172 112.451 99.8457 113.035C99.5293 113.619 99.0891 114.075 98.5254 114.402C97.9616 114.729 97.3237 114.892 96.6116 114.892ZM96.6116 113.614C97.0171 113.614 97.3831 113.515 97.7094 113.317C98.0457 113.119 98.3128 112.827 98.5105 112.441C98.7182 112.044 98.8221 111.554 98.8221 110.97C98.8221 110.385 98.7231 109.9 98.5254 109.514C98.3276 109.118 98.0606 108.82 97.7243 108.622C97.3979 108.424 97.0369 108.325 96.6413 108.325C96.2457 108.325 95.8798 108.424 95.5435 108.622C95.2072 108.82 94.9352 109.118 94.7276 109.514C94.5298 109.9 94.4308 110.385 94.4308 110.97C94.4308 111.554 94.5298 112.044 94.7276 112.441C94.9352 112.827 95.2023 113.119 95.5287 113.317C95.8649 113.515 96.2259 113.614 96.6116 113.614ZM104.825 114.892C104.241 114.892 103.732 114.773 103.297 114.536C102.872 114.298 102.54 113.941 102.303 113.466C102.075 112.99 101.962 112.391 101.962 111.668V107.226H103.445V111.505C103.445 112.208 103.599 112.738 103.905 113.094C104.212 113.451 104.652 113.629 105.225 113.629C105.611 113.629 105.957 113.535 106.264 113.347C106.58 113.159 106.828 112.886 107.006 112.53C107.184 112.173 107.273 111.737 107.273 111.222V107.226H108.756V114.714H107.436L107.332 113.436C107.105 113.892 106.773 114.248 106.338 114.506C105.903 114.763 105.399 114.892 104.825 114.892ZM113.873 114.714C113.398 114.714 112.988 114.64 112.642 114.491C112.296 114.342 112.029 114.095 111.841 113.748C111.653 113.401 111.559 112.931 111.559 112.337V108.489H110.268V107.226H111.559L111.737 105.354H113.042V107.226H115.164V108.489H113.042V112.352C113.042 112.777 113.131 113.07 113.309 113.228C113.487 113.377 113.794 113.451 114.229 113.451H115.09V114.714H113.873ZM119.979 114.892C119.267 114.892 118.634 114.729 118.08 114.402C117.527 114.075 117.091 113.619 116.775 113.035C116.468 112.451 116.315 111.772 116.315 111C116.315 110.207 116.468 109.519 116.775 108.934C117.091 108.34 117.527 107.88 118.08 107.553C118.634 107.216 119.277 107.048 120.009 107.048C120.741 107.048 121.369 107.211 121.893 107.538C122.417 107.865 122.823 108.3 123.11 108.845C123.396 109.38 123.54 109.974 123.54 110.628C123.54 110.727 123.535 110.836 123.525 110.955C123.525 111.064 123.52 111.188 123.51 111.326H117.398V110.272H122.056C122.027 109.648 121.819 109.162 121.433 108.816C121.048 108.459 120.568 108.281 119.994 108.281C119.589 108.281 119.218 108.375 118.882 108.563C118.545 108.741 118.273 109.009 118.066 109.365C117.868 109.712 117.769 110.153 117.769 110.688V111.104C117.769 111.658 117.868 112.129 118.066 112.515C118.273 112.891 118.545 113.179 118.882 113.377C119.218 113.565 119.584 113.659 119.979 113.659C120.454 113.659 120.845 113.555 121.151 113.347C121.458 113.139 121.685 112.857 121.834 112.5H123.317C123.189 112.956 122.971 113.367 122.665 113.733C122.358 114.09 121.977 114.372 121.522 114.58C121.077 114.788 120.563 114.892 119.979 114.892ZM125.188 114.714V107.226H126.523L126.657 108.637C126.825 108.3 127.042 108.018 127.309 107.79C127.577 107.553 127.888 107.369 128.244 107.241C128.61 107.112 129.025 107.048 129.49 107.048V108.622H128.956C128.65 108.622 128.358 108.662 128.081 108.741C127.804 108.811 127.557 108.934 127.339 109.113C127.131 109.291 126.968 109.534 126.85 109.841C126.731 110.148 126.672 110.529 126.672 110.985V114.714H125.188ZM137.393 114.892C136.809 114.892 136.3 114.773 135.865 114.536C135.44 114.298 135.108 113.941 134.871 113.466C134.643 112.99 134.53 112.391 134.53 111.668V107.226H136.013V111.505C136.013 112.208 136.167 112.738 136.473 113.094C136.78 113.451 137.22 113.629 137.793 113.629C138.179 113.629 138.525 113.535 138.832 113.347C139.148 113.159 139.396 112.886 139.574 112.53C139.752 112.173 139.841 111.737 139.841 111.222V107.226H141.324V114.714H140.004L139.9 113.436C139.673 113.892 139.341 114.248 138.906 114.506C138.471 114.763 137.967 114.892 137.393 114.892ZM143.355 114.714V107.226H144.691L144.78 108.504C145.017 108.058 145.353 107.706 145.788 107.449C146.224 107.181 146.723 107.048 147.287 107.048C147.88 107.048 148.39 107.166 148.815 107.404C149.24 107.642 149.571 108.003 149.809 108.489C150.046 108.964 150.165 109.563 150.165 110.286V114.714H148.681V110.435C148.681 109.742 148.528 109.217 148.221 108.86C147.915 108.504 147.47 108.325 146.886 108.325C146.501 108.325 146.154 108.419 145.848 108.608C145.541 108.786 145.294 109.053 145.106 109.41C144.928 109.766 144.839 110.202 144.839 110.717V114.714H143.355ZM155.858 117.982V107.226H157.193L157.342 108.385C157.5 108.157 157.698 107.944 157.935 107.746C158.172 107.538 158.454 107.369 158.781 107.241C159.117 107.112 159.508 107.048 159.953 107.048C160.665 107.048 161.288 107.221 161.822 107.568C162.366 107.914 162.786 108.385 163.083 108.979C163.39 109.563 163.543 110.232 163.543 110.985C163.543 111.737 163.39 112.411 163.083 113.005C162.776 113.59 162.351 114.05 161.807 114.387C161.273 114.724 160.65 114.892 159.938 114.892C159.355 114.892 158.84 114.778 158.395 114.55C157.95 114.313 157.598 113.986 157.342 113.57V117.982H155.858ZM159.7 113.6C160.156 113.6 160.556 113.491 160.902 113.273C161.258 113.055 161.535 112.748 161.733 112.352C161.941 111.955 162.044 111.495 162.044 110.97C162.044 110.445 161.941 109.989 161.733 109.603C161.535 109.207 161.258 108.9 160.902 108.682C160.556 108.454 160.156 108.34 159.7 108.34C159.236 108.34 158.825 108.454 158.469 108.682C158.123 108.9 157.851 109.207 157.653 109.603C157.456 109.989 157.356 110.445 157.356 110.97C157.356 111.495 157.456 111.955 157.653 112.352C157.851 112.748 158.123 113.055 158.469 113.273C158.825 113.491 159.236 113.6 159.7 113.6ZM165.275 114.714V107.226H166.61L166.743 108.637C166.912 108.3 167.129 108.018 167.396 107.79C167.663 107.553 167.975 107.369 168.331 107.241C168.697 107.112 169.112 107.048 169.577 107.048V108.622H169.043C168.737 108.622 168.445 108.662 168.168 108.741C167.891 108.811 167.644 108.934 167.426 109.113C167.218 109.291 167.055 109.534 166.936 109.841C166.818 110.148 166.758 110.529 166.758 110.985V114.714H165.275ZM174.134 114.892C173.432 114.892 172.799 114.729 172.235 114.402C171.682 114.075 171.241 113.619 170.915 113.035C170.599 112.441 170.44 111.757 170.44 110.985C170.44 110.192 170.603 109.504 170.93 108.92C171.256 108.325 171.701 107.865 172.265 107.538C172.829 107.211 173.462 107.048 174.164 107.048C174.876 107.048 175.509 107.211 176.063 107.538C176.617 107.865 177.052 108.32 177.368 108.905C177.695 109.489 177.858 110.177 177.858 110.97C177.858 111.762 177.695 112.451 177.368 113.035C177.052 113.619 176.612 114.075 176.048 114.402C175.484 114.729 174.846 114.892 174.134 114.892ZM174.134 113.614C174.54 113.614 174.906 113.515 175.232 113.317C175.569 113.119 175.836 112.827 176.033 112.441C176.241 112.044 176.345 111.554 176.345 110.97C176.345 110.385 176.246 109.9 176.048 109.514C175.85 109.118 175.583 108.82 175.247 108.622C174.92 108.424 174.56 108.325 174.164 108.325C173.769 108.325 173.403 108.424 173.066 108.622C172.73 108.82 172.458 109.118 172.25 109.514C172.053 109.9 171.953 110.385 171.953 110.97C171.953 111.554 172.053 112.044 172.25 112.441C172.458 112.827 172.725 113.119 173.051 113.317C173.388 113.515 173.748 113.614 174.134 113.614ZM182.927 114.892C182.215 114.892 181.586 114.724 181.043 114.387C180.498 114.04 180.073 113.575 179.767 112.99C179.47 112.396 179.322 111.723 179.322 110.97C179.322 110.207 179.47 109.534 179.767 108.949C180.073 108.365 180.498 107.904 181.043 107.568C181.596 107.221 182.23 107.048 182.942 107.048C183.525 107.048 184.039 107.166 184.485 107.404C184.93 107.632 185.275 107.959 185.523 108.385V104.017H187.007V114.714H185.671L185.523 113.555C185.375 113.783 185.182 114.001 184.944 114.209C184.707 114.407 184.42 114.57 184.084 114.699C183.747 114.828 183.362 114.892 182.927 114.892ZM183.164 113.6C183.629 113.6 184.039 113.491 184.396 113.273C184.752 113.055 185.023 112.748 185.211 112.352C185.409 111.955 185.508 111.495 185.508 110.97C185.508 110.445 185.409 109.989 185.211 109.603C185.023 109.207 184.752 108.9 184.396 108.682C184.039 108.454 183.629 108.34 183.164 108.34C182.719 108.34 182.319 108.454 181.963 108.682C181.606 108.9 181.329 109.207 181.132 109.603C180.933 109.989 180.835 110.445 180.835 110.97C180.835 111.495 180.933 111.955 181.132 112.352C181.329 112.748 181.606 113.055 181.963 113.273C182.319 113.491 182.719 113.6 183.164 113.6ZM191.779 114.892C191.196 114.892 190.687 114.773 190.251 114.536C189.826 114.298 189.494 113.941 189.257 113.466C189.03 112.99 188.916 112.391 188.916 111.668V107.226H190.399V111.505C190.399 112.208 190.553 112.738 190.859 113.094C191.166 113.451 191.606 113.629 192.179 113.629C192.565 113.629 192.912 113.535 193.218 113.347C193.535 113.159 193.782 112.886 193.96 112.53C194.138 112.173 194.227 111.737 194.227 111.222V107.226H195.71V114.714H194.39L194.286 113.436C194.059 113.892 193.728 114.248 193.292 114.506C192.857 114.763 192.353 114.892 191.779 114.892ZM197.846 114.714V107.226H199.329V114.714H197.846ZM198.602 105.814C198.316 105.814 198.078 105.725 197.89 105.547C197.712 105.369 197.623 105.141 197.623 104.864C197.623 104.596 197.712 104.378 197.89 104.21C198.078 104.032 198.316 103.942 198.602 103.942C198.879 103.942 199.111 104.032 199.299 104.21C199.488 104.378 199.581 104.596 199.581 104.864C199.581 105.141 199.488 105.369 199.299 105.547C199.111 105.725 198.879 105.814 198.602 105.814ZM204.536 114.714C204.061 114.714 203.651 114.64 203.305 114.491C202.959 114.342 202.692 114.095 202.504 113.748C202.316 113.401 202.222 112.931 202.222 112.337V108.489H200.931V107.226H202.222L202.4 105.354H203.705V107.226H205.827V108.489H203.705V112.352C203.705 112.777 203.794 113.07 203.972 113.228C204.15 113.377 204.457 113.451 204.892 113.451H205.753V114.714H204.536Z" fill="#111111"/>
<path d="M78.3984 135.393H521.601" stroke="#D5D5D5"/>
<path d="M83.0549 169.5V160.4H84.353L88.9872 167.381V160.4H90.2853V169.5H88.9872L84.353 162.532V169.5H83.0549ZM95.1028 169.656C94.4884 169.656 93.9345 169.513 93.4413 169.227C92.9566 168.941 92.5716 168.543 92.286 168.031C92.009 167.511 91.8706 166.913 91.8706 166.237C91.8706 165.544 92.0134 164.942 92.299 164.43C92.5845 163.91 92.974 163.507 93.4672 163.221C93.9605 162.935 94.5143 162.792 95.1288 162.792C95.7519 162.792 96.3057 162.935 96.7903 163.221C97.2749 163.507 97.6557 163.906 97.9326 164.417C98.2182 164.929 98.361 165.531 98.361 166.224C98.361 166.918 98.2182 167.52 97.9326 168.031C97.6557 168.543 97.2706 168.941 96.7774 169.227C96.2841 169.513 95.7259 169.656 95.1028 169.656ZM95.1028 168.538C95.4576 168.538 95.7778 168.452 96.0634 168.278C96.3576 168.105 96.5913 167.849 96.7644 167.511C96.9461 167.165 97.037 166.736 97.037 166.224C97.037 165.713 96.9504 165.288 96.7774 164.95C96.6042 164.604 96.3706 164.344 96.0764 164.17C95.7908 163.997 95.4749 163.91 95.1288 163.91C94.7826 163.91 94.4624 163.997 94.1682 164.17C93.8739 164.344 93.636 164.604 93.4543 164.95C93.2811 165.288 93.1946 165.713 93.1946 166.224C93.1946 166.736 93.2811 167.165 93.4543 167.511C93.636 167.849 93.8696 168.105 94.1552 168.278C94.4494 168.452 94.7653 168.538 95.1028 168.538ZM99.8879 169.5V162.948H101.056L101.147 163.871C101.355 163.533 101.632 163.269 101.978 163.078C102.324 162.888 102.713 162.792 103.146 162.792C103.475 162.792 103.774 162.84 104.042 162.935C104.31 163.022 104.548 163.156 104.756 163.338C104.963 163.52 105.132 163.746 105.262 164.014C105.496 163.633 105.807 163.334 106.197 163.117C106.595 162.901 107.014 162.792 107.456 162.792C107.984 162.792 108.438 162.901 108.819 163.117C109.2 163.325 109.489 163.642 109.688 164.066C109.888 164.482 109.987 165.002 109.987 165.626V169.5H108.702V165.756C108.702 165.15 108.576 164.69 108.325 164.378C108.083 164.066 107.724 163.91 107.248 163.91C106.928 163.91 106.642 163.993 106.391 164.157C106.14 164.322 105.941 164.56 105.794 164.872C105.656 165.184 105.587 165.566 105.587 166.016V169.5H104.288V165.756C104.288 165.15 104.163 164.69 103.912 164.378C103.67 164.066 103.311 163.91 102.835 163.91C102.532 163.91 102.255 163.993 102.004 164.157C101.753 164.322 101.554 164.56 101.407 164.872C101.26 165.184 101.186 165.566 101.186 166.016V169.5H99.8879ZM117.893 169.656C117.27 169.656 116.721 169.509 116.245 169.214C115.769 168.911 115.397 168.504 115.129 167.992C114.869 167.472 114.739 166.883 114.739 166.224C114.739 165.557 114.869 164.968 115.129 164.456C115.397 163.945 115.769 163.542 116.245 163.247C116.73 162.944 117.283 162.792 117.906 162.792C118.417 162.792 118.867 162.896 119.256 163.104C119.646 163.304 119.949 163.59 120.165 163.962V160.14H121.463V169.5H120.295L120.165 168.486C120.035 168.686 119.867 168.876 119.659 169.058C119.451 169.232 119.2 169.375 118.906 169.487C118.612 169.6 118.274 169.656 117.893 169.656ZM118.101 168.525C118.508 168.525 118.867 168.43 119.179 168.239C119.49 168.049 119.728 167.78 119.893 167.433C120.066 167.087 120.152 166.684 120.152 166.224C120.152 165.765 120.066 165.366 119.893 165.028C119.728 164.682 119.49 164.413 119.179 164.222C118.867 164.023 118.508 163.923 118.101 163.923C117.712 163.923 117.361 164.023 117.05 164.222C116.738 164.413 116.496 164.682 116.323 165.028C116.15 165.366 116.063 165.765 116.063 166.224C116.063 166.684 116.15 167.087 116.323 167.433C116.496 167.78 116.738 168.049 117.05 168.239C117.361 168.43 117.712 168.525 118.101 168.525ZM125.64 169.656C125.129 169.656 124.683 169.552 124.303 169.344C123.931 169.136 123.641 168.824 123.433 168.408C123.234 167.992 123.134 167.468 123.134 166.835V162.948H124.432V166.692C124.432 167.308 124.567 167.771 124.835 168.083C125.103 168.395 125.488 168.551 125.99 168.551C126.328 168.551 126.631 168.469 126.899 168.304C127.176 168.14 127.392 167.901 127.548 167.589C127.704 167.277 127.782 166.896 127.782 166.445V162.948H129.08V169.5H127.924L127.833 168.382C127.634 168.781 127.345 169.093 126.964 169.318C126.583 169.544 126.142 169.656 125.64 169.656ZM134.178 172.36V162.948H135.346L135.476 163.962C135.615 163.763 135.788 163.577 135.995 163.403C136.203 163.221 136.45 163.074 136.735 162.961C137.03 162.849 137.371 162.792 137.761 162.792C138.384 162.792 138.929 162.944 139.396 163.247C139.872 163.551 140.24 163.962 140.5 164.482C140.768 164.994 140.902 165.579 140.902 166.237C140.902 166.896 140.768 167.485 140.5 168.005C140.232 168.517 139.859 168.92 139.383 169.214C138.916 169.509 138.371 169.656 137.748 169.656C137.237 169.656 136.787 169.557 136.398 169.357C136.008 169.149 135.701 168.863 135.476 168.499V172.36H134.178ZM137.54 168.525C137.938 168.525 138.289 168.43 138.592 168.239C138.903 168.049 139.146 167.78 139.319 167.433C139.5 167.087 139.591 166.684 139.591 166.224C139.591 165.765 139.5 165.366 139.319 165.028C139.146 164.682 138.903 164.413 138.592 164.222C138.289 164.023 137.938 163.923 137.54 163.923C137.134 163.923 136.774 164.023 136.463 164.222C136.16 164.413 135.922 164.682 135.749 165.028C135.576 165.366 135.489 165.765 135.489 166.224C135.489 166.684 135.576 167.087 135.749 167.433C135.922 167.78 136.16 168.049 136.463 168.239C136.774 168.43 137.134 168.525 137.54 168.525ZM142.418 169.5V162.948H143.586L143.703 164.183C143.85 163.889 144.041 163.642 144.274 163.442C144.508 163.234 144.781 163.074 145.092 162.961C145.412 162.849 145.776 162.792 146.182 162.792V164.17H145.715C145.447 164.17 145.192 164.205 144.949 164.274C144.707 164.335 144.491 164.443 144.3 164.599C144.118 164.755 143.976 164.968 143.872 165.236C143.768 165.505 143.716 165.839 143.716 166.237V169.5H142.418ZM150.17 169.656C149.556 169.656 149.002 169.513 148.508 169.227C148.024 168.941 147.639 168.543 147.353 168.031C147.076 167.511 146.938 166.913 146.938 166.237C146.938 165.544 147.081 164.942 147.366 164.43C147.652 163.91 148.041 163.507 148.534 163.221C149.028 162.935 149.581 162.792 150.196 162.792C150.819 162.792 151.373 162.935 151.857 163.221C152.342 163.507 152.723 163.906 152.999 164.417C153.285 164.929 153.428 165.531 153.428 166.224C153.428 166.918 153.285 167.52 152.999 168.031C152.723 168.543 152.337 168.941 151.844 169.227C151.351 169.513 150.793 169.656 150.17 169.656ZM150.17 168.538C150.525 168.538 150.845 168.452 151.13 168.278C151.425 168.105 151.659 167.849 151.831 167.511C152.013 167.165 152.104 166.736 152.104 166.224C152.104 165.713 152.018 165.288 151.844 164.95C151.672 164.604 151.438 164.344 151.143 164.17C150.858 163.997 150.542 163.91 150.196 163.91C149.85 163.91 149.53 163.997 149.235 164.17C148.941 164.344 148.703 164.604 148.521 164.95C148.348 165.288 148.262 165.713 148.262 166.224C148.262 166.736 148.348 167.165 148.521 167.511C148.703 167.849 148.937 168.105 149.222 168.278C149.517 168.452 149.832 168.538 150.17 168.538ZM157.863 169.656C157.24 169.656 156.691 169.509 156.214 169.214C155.738 168.911 155.367 168.504 155.098 167.992C154.838 167.472 154.708 166.883 154.708 166.224C154.708 165.557 154.838 164.968 155.098 164.456C155.367 163.945 155.738 163.542 156.214 163.247C156.699 162.944 157.253 162.792 157.876 162.792C158.386 162.792 158.836 162.896 159.226 163.104C159.615 163.304 159.918 163.59 160.134 163.962V160.14H161.432V169.5H160.264L160.134 168.486C160.004 168.686 159.836 168.876 159.628 169.058C159.42 169.232 159.17 169.375 158.875 169.487C158.581 169.6 158.244 169.656 157.863 169.656ZM158.07 168.525C158.477 168.525 158.836 168.43 159.148 168.239C159.459 168.049 159.698 167.78 159.862 167.433C160.035 167.087 160.121 166.684 160.121 166.224C160.121 165.765 160.035 165.366 159.862 165.028C159.698 164.682 159.459 164.413 159.148 164.222C158.836 164.023 158.477 163.923 158.07 163.923C157.681 163.923 157.33 164.023 157.019 164.222C156.707 164.413 156.465 164.682 156.292 165.028C156.119 165.366 156.032 165.765 156.032 166.224C156.032 166.684 156.119 167.087 156.292 167.433C156.465 167.78 156.707 168.049 157.019 168.239C157.33 168.43 157.681 168.525 158.07 168.525ZM165.609 169.656C165.098 169.656 164.653 169.552 164.272 169.344C163.9 169.136 163.61 168.824 163.403 168.408C163.203 167.992 163.104 167.468 163.104 166.835V162.948H164.402V166.692C164.402 167.308 164.536 167.771 164.805 168.083C165.073 168.395 165.457 168.551 165.96 168.551C166.297 168.551 166.6 168.469 166.869 168.304C167.145 168.14 167.362 167.901 167.518 167.589C167.673 167.277 167.751 166.896 167.751 166.445V162.948H169.049V169.5H167.894L167.803 168.382C167.604 168.781 167.314 169.093 166.933 169.318C166.552 169.544 166.111 169.656 165.609 169.656ZM170.917 169.5V162.948H172.215V169.5H170.917ZM171.579 161.713C171.328 161.713 171.121 161.635 170.956 161.479C170.8 161.323 170.722 161.124 170.722 160.881C170.722 160.647 170.8 160.457 170.956 160.309C171.121 160.153 171.328 160.075 171.579 160.075C171.822 160.075 172.025 160.153 172.189 160.309C172.354 160.457 172.435 160.647 172.435 160.881C172.435 161.124 172.354 161.323 172.189 161.479C172.025 161.635 171.822 161.713 171.579 161.713ZM176.771 169.5C176.356 169.5 175.997 169.435 175.694 169.305C175.391 169.175 175.158 168.959 174.993 168.655C174.829 168.352 174.746 167.94 174.746 167.42V164.053H173.617V162.948H174.746L174.902 161.31H176.044V162.948H177.9V164.053H176.044V167.433C176.044 167.806 176.122 168.062 176.278 168.2C176.434 168.33 176.702 168.395 177.083 168.395H177.835V169.5H176.771Z" fill="#111111"/>
<path d="M511.402 178.321H88.5977C83.733 178.321 79.7893 182.271 79.7893 187.143V203.857C79.7893 208.729 83.733 212.678 88.5977 212.678H511.402C516.267 212.678 520.211 208.729 520.211 203.857V187.143C520.211 182.271 516.267 178.321 511.402 178.321Z" fill="white"/>
<path d="M511.402 178.321H88.5977C83.733 178.321 79.7893 182.271 79.7893 187.143V203.857C79.7893 208.729 83.733 212.678 88.5977 212.678H511.402C516.267 212.678 520.211 208.729 520.211 203.857V187.143C520.211 182.271 516.267 178.321 511.402 178.321Z" stroke="#D5D5D5"/>
<path d="M86.6988 247.871L83.5704 242.944H85.0632L88.2176 247.871H86.6988ZM84.3623 246.727C83.4882 246.727 82.718 246.532 82.0517 246.142C81.394 245.744 80.8748 245.193 80.494 244.491C80.1219 243.781 79.9358 242.957 79.9358 242.021C79.9358 241.093 80.1219 240.279 80.494 239.577C80.8748 238.867 81.394 238.311 82.0517 237.913C82.718 237.515 83.4882 237.315 84.3623 237.315C85.2536 237.315 86.0324 237.515 86.6988 237.913C87.3652 238.311 87.8801 238.867 88.2435 239.577C88.6156 240.279 88.8017 241.093 88.8017 242.021C88.8017 242.957 88.6156 243.781 88.2435 244.491C87.8801 245.193 87.3652 245.744 86.6988 246.142C86.0324 246.532 85.2536 246.727 84.3623 246.727ZM84.3752 245.57C84.9983 245.57 85.5435 245.427 86.0108 245.141C86.4781 244.855 86.8372 244.447 87.0882 243.919C87.3479 243.391 87.4777 242.757 87.4777 242.021C87.4777 241.285 87.3479 240.651 87.0882 240.123C86.8372 239.595 86.4781 239.192 86.0108 238.914C85.5435 238.628 84.9983 238.485 84.3752 238.485C83.7522 238.485 83.207 238.628 82.7397 238.914C82.2723 239.192 81.9089 239.595 81.6493 240.123C81.3896 240.651 81.2598 241.285 81.2598 242.021C81.2598 242.757 81.3896 243.391 81.6493 243.919C81.9089 244.447 82.2723 244.855 82.7397 245.141C83.207 245.427 83.7522 245.57 84.3752 245.57ZM92.7004 246.727C92.1898 246.727 91.7442 246.623 91.3634 246.415C90.9913 246.207 90.7014 245.895 90.4937 245.479C90.2946 245.063 90.1951 244.538 90.1951 243.906V240.019H91.4932V243.763C91.4932 244.379 91.6274 244.842 91.8956 245.154C92.1638 245.466 92.549 245.622 93.0509 245.622C93.3884 245.622 93.6913 245.539 93.9595 245.375C94.2365 245.211 94.4528 244.972 94.6086 244.66C94.7644 244.348 94.8422 243.966 94.8422 243.516V240.019H96.1403V246.571H94.985L94.8942 245.453C94.6951 245.851 94.4053 246.163 94.0245 246.389C93.6437 246.615 93.2023 246.727 92.7004 246.727ZM100.085 246.727C99.5488 246.727 99.1032 246.636 98.7484 246.454C98.3935 246.272 98.1296 246.03 97.9565 245.726C97.7834 245.414 97.6969 245.081 97.6969 244.725C97.6969 244.291 97.8094 243.924 98.0344 243.62C98.2595 243.308 98.5796 243.069 98.995 242.905C99.4104 242.741 99.908 242.658 100.488 242.658H102.188C102.188 242.276 102.132 241.961 102.02 241.709C101.907 241.457 101.738 241.272 101.513 241.15C101.297 241.02 101.02 240.955 100.683 240.955C100.293 240.955 99.9599 241.051 99.683 241.241C99.406 241.423 99.233 241.696 99.1638 242.06H97.8657C97.9176 241.6 98.0734 241.21 98.333 240.89C98.6012 240.56 98.9431 240.31 99.3585 240.136C99.7739 239.954 100.215 239.863 100.683 239.863C101.297 239.863 101.812 239.972 102.227 240.188C102.643 240.404 102.954 240.713 103.162 241.111C103.378 241.501 103.486 241.969 103.486 242.515V246.571H102.357L102.253 245.466C102.158 245.64 102.046 245.804 101.916 245.96C101.786 246.116 101.63 246.251 101.448 246.363C101.275 246.475 101.072 246.563 100.838 246.623C100.613 246.693 100.362 246.727 100.085 246.727ZM100.332 245.674C100.609 245.674 100.86 245.617 101.085 245.505C101.31 245.393 101.5 245.24 101.656 245.05C101.82 244.85 101.942 244.629 102.02 244.387C102.106 244.135 102.154 243.88 102.162 243.62V243.581H100.618C100.246 243.581 99.9426 243.628 99.709 243.724C99.4839 243.81 99.3195 243.932 99.2157 244.088C99.1118 244.244 99.0599 244.426 99.0599 244.634C99.0599 244.85 99.1075 245.037 99.2027 245.193C99.3065 245.341 99.4537 245.458 99.644 245.544C99.8344 245.63 100.064 245.674 100.332 245.674ZM105.143 246.571V240.019H106.312L106.389 241.137C106.597 240.747 106.891 240.44 107.272 240.214C107.653 239.98 108.09 239.863 108.583 239.863C109.102 239.863 109.548 239.967 109.92 240.175C110.292 240.383 110.582 240.7 110.79 241.124C110.998 241.54 111.101 242.065 111.101 242.697V246.571H109.803V242.827C109.803 242.221 109.669 241.761 109.401 241.449C109.133 241.137 108.743 240.981 108.233 240.981C107.895 240.981 107.592 241.064 107.324 241.228C107.056 241.384 106.839 241.618 106.675 241.93C106.519 242.242 106.441 242.624 106.441 243.074V246.571H105.143ZM115.462 246.571C115.047 246.571 114.687 246.506 114.385 246.376C114.082 246.246 113.848 246.03 113.684 245.726C113.519 245.422 113.437 245.011 113.437 244.491V241.124H112.308V240.019H113.437L113.593 238.381H114.735V240.019H116.591V241.124H114.735V244.504C114.735 244.876 114.813 245.133 114.969 245.271C115.124 245.401 115.393 245.466 115.773 245.466H116.526V246.571H115.462ZM118.114 246.571V240.019H119.412V246.571H118.114ZM118.776 238.784C118.525 238.784 118.317 238.706 118.153 238.55C117.997 238.394 117.919 238.194 117.919 237.952C117.919 237.718 117.997 237.528 118.153 237.38C118.317 237.224 118.525 237.146 118.776 237.146C119.018 237.146 119.221 237.224 119.386 237.38C119.55 237.528 119.632 237.718 119.632 237.952C119.632 238.194 119.55 238.394 119.386 238.55C119.221 238.706 119.018 238.784 118.776 238.784ZM123.968 246.571C123.553 246.571 123.193 246.506 122.891 246.376C122.588 246.246 122.354 246.03 122.19 245.726C122.025 245.422 121.943 245.011 121.943 244.491V241.124H120.814V240.019H121.943L122.099 238.381H123.241V240.019H125.097V241.124H123.241V244.504C123.241 244.876 123.319 245.133 123.475 245.271C123.63 245.401 123.899 245.466 124.279 245.466H125.032V246.571H123.968ZM129.311 246.727C128.688 246.727 128.134 246.584 127.649 246.298C127.165 246.012 126.784 245.614 126.507 245.102C126.239 244.59 126.105 243.997 126.105 243.321C126.105 242.627 126.239 242.026 126.507 241.514C126.784 240.994 127.165 240.591 127.649 240.305C128.134 240.011 128.696 239.863 129.337 239.863C129.977 239.863 130.527 240.006 130.985 240.292C131.444 240.578 131.799 240.96 132.05 241.436C132.301 241.904 132.426 242.424 132.426 242.996C132.426 243.082 132.422 243.178 132.413 243.282C132.413 243.378 132.409 243.485 132.4 243.607H127.052V242.684H131.128C131.102 242.138 130.92 241.714 130.583 241.41C130.245 241.098 129.826 240.942 129.324 240.942C128.969 240.942 128.645 241.025 128.35 241.189C128.056 241.345 127.818 241.579 127.636 241.891C127.463 242.195 127.377 242.58 127.377 243.048V243.412C127.377 243.898 127.463 244.309 127.636 244.647C127.818 244.977 128.056 245.227 128.35 245.401C128.645 245.565 128.965 245.648 129.311 245.648C129.726 245.648 130.068 245.557 130.336 245.375C130.605 245.193 130.804 244.946 130.933 244.634H132.232C132.119 245.032 131.929 245.393 131.66 245.713C131.392 246.025 131.059 246.272 130.661 246.454C130.271 246.636 129.821 246.727 129.311 246.727ZM127.987 239.46L127.857 238.563L130.544 236.912L130.713 237.978L127.987 239.46Z" fill="#111111"/>
<path d="M88.5977 256.321H127.077V289.75H88.5977C83.733 289.75 79.7893 285.801 79.7893 280.928V265.143C79.7893 260.271 83.733 256.321 88.5977 256.321Z" fill="white"/>
<path d="M88.5977 256.321H127.077V289.75H88.5977C83.733 289.75 79.7893 285.801 79.7893 280.928V265.143C79.7893 260.271 83.733 256.321 88.5977 256.321Z" stroke="#D5D5D5"/>
<path d="M94.6059 278.143V269.779L92.7664 270.254V268.872L95.318 267.743H96.4307V278.143H94.6059Z" fill="#111111"/>
<path d="M141.448 256.321C146.313 256.321 150.257 260.271 150.257 265.143V280.928C150.257 285.801 146.313 289.75 141.448 289.75H127.077V256.321H141.448Z" fill="white"/>
<path d="M141.448 256.321C146.313 256.321 150.257 260.271 150.257 265.143V280.928C150.257 285.801 146.313 289.75 141.448 289.75H127.077V256.321H141.448Z" stroke="#D5D5D5"/>
<path d="M138.848 285.021L134.031 280.197L135.155 279.071L138.848 282.77L142.541 279.071L143.665 280.197L138.848 285.021Z" fill="#333333"/>
<path d="M138.848 261.43L134.031 266.254L135.155 267.379L138.848 263.681L142.541 267.379L143.665 266.254L138.848 261.43Z" fill="#333333"/>
<path d="M83.0549 320.857V311.757H84.353L88.9872 318.738V311.757H90.2853V320.857H88.9872L84.353 313.889V320.857H83.0549ZM94.5187 321.013C94.0081 321.013 93.5624 320.909 93.1817 320.701C92.8095 320.493 92.5196 320.181 92.3119 319.765C92.1129 319.349 92.0134 318.825 92.0134 318.192V314.305H93.3115V318.049C93.3115 318.665 93.4455 319.128 93.7139 319.44C93.9821 319.752 94.3672 319.908 94.8692 319.908C95.2067 319.908 95.5095 319.826 95.7778 319.661C96.0547 319.497 96.2711 319.258 96.4269 318.946C96.5826 318.634 96.6605 318.253 96.6605 317.802V314.305H97.9586V320.857H96.8033L96.7124 319.739C96.5134 320.138 96.2234 320.45 95.8427 320.675C95.4619 320.901 95.0206 321.013 94.5187 321.013ZM99.7358 320.857V314.305H100.904L100.995 315.228C101.203 314.89 101.48 314.626 101.826 314.435C102.172 314.245 102.561 314.149 102.994 314.149C103.323 314.149 103.621 314.197 103.89 314.292C104.158 314.379 104.396 314.513 104.604 314.695C104.811 314.877 104.98 315.103 105.11 315.371C105.344 314.99 105.655 314.691 106.044 314.474C106.443 314.258 106.862 314.149 107.304 314.149C107.832 314.149 108.286 314.258 108.667 314.474C109.047 314.682 109.337 314.999 109.536 315.423C109.735 315.839 109.835 316.359 109.835 316.983V320.857H108.55V317.113C108.55 316.507 108.424 316.047 108.173 315.735C107.931 315.423 107.572 315.267 107.096 315.267C106.776 315.267 106.49 315.35 106.239 315.514C105.988 315.679 105.789 315.917 105.642 316.229C105.504 316.541 105.434 316.923 105.434 317.373V320.857H104.136V317.113C104.136 316.507 104.011 316.047 103.76 315.735C103.518 315.423 103.158 315.267 102.682 315.267C102.38 315.267 102.103 315.35 101.852 315.514C101.601 315.679 101.402 315.917 101.255 316.229C101.107 316.541 101.034 316.923 101.034 317.373V320.857H99.7358ZM114.472 321.013C113.849 321.013 113.295 320.87 112.81 320.584C112.326 320.298 111.945 319.9 111.668 319.388C111.4 318.877 111.266 318.283 111.266 317.607C111.266 316.914 111.4 316.312 111.668 315.8C111.945 315.28 112.326 314.877 112.81 314.591C113.295 314.297 113.858 314.149 114.498 314.149C115.138 314.149 115.688 314.292 116.147 314.578C116.605 314.864 116.96 315.246 117.211 315.722C117.462 316.19 117.587 316.71 117.587 317.282C117.587 317.369 117.583 317.464 117.574 317.568C117.574 317.664 117.57 317.772 117.561 317.893H112.213V316.97H116.289C116.263 316.424 116.082 316 115.744 315.696C115.407 315.384 114.987 315.228 114.485 315.228C114.13 315.228 113.806 315.311 113.511 315.475C113.217 315.631 112.979 315.865 112.797 316.177C112.624 316.481 112.538 316.866 112.538 317.334V317.698C112.538 318.184 112.624 318.595 112.797 318.933C112.979 319.263 113.217 319.514 113.511 319.687C113.806 319.852 114.126 319.934 114.472 319.934C114.887 319.934 115.229 319.843 115.497 319.661C115.766 319.479 115.965 319.232 116.095 318.92H117.393C117.28 319.319 117.09 319.679 116.822 319.999C116.553 320.311 116.22 320.558 115.822 320.74C115.433 320.922 114.983 321.013 114.472 321.013ZM113.148 313.746L113.018 312.849L115.705 311.198L115.874 312.264L113.148 313.746ZM119.03 320.857V314.305H120.198L120.315 315.54C120.462 315.246 120.652 314.999 120.886 314.799C121.119 314.591 121.392 314.431 121.704 314.318C122.024 314.206 122.387 314.149 122.794 314.149V315.527H122.327C122.058 315.527 121.803 315.562 121.561 315.631C121.319 315.692 121.102 315.8 120.912 315.956C120.73 316.112 120.587 316.325 120.483 316.593C120.38 316.862 120.328 317.196 120.328 317.594V320.857H119.03ZM126.782 321.013C126.167 321.013 125.613 320.87 125.12 320.584C124.635 320.298 124.25 319.9 123.965 319.388C123.688 318.868 123.549 318.27 123.549 317.594C123.549 316.901 123.692 316.299 123.978 315.787C124.263 315.267 124.653 314.864 125.146 314.578C125.639 314.292 126.193 314.149 126.808 314.149C127.431 314.149 127.985 314.292 128.469 314.578C128.954 314.864 129.335 315.263 129.611 315.774C129.897 316.286 130.04 316.888 130.04 317.581C130.04 318.275 129.897 318.877 129.611 319.388C129.335 319.9 128.949 320.298 128.456 320.584C127.963 320.87 127.405 321.013 126.782 321.013ZM126.782 319.895C127.136 319.895 127.457 319.809 127.742 319.635C128.036 319.462 128.27 319.206 128.443 318.868C128.625 318.522 128.716 318.093 128.716 317.581C128.716 317.07 128.629 316.645 128.456 316.307C128.283 315.961 128.049 315.701 127.755 315.527C127.47 315.354 127.154 315.267 126.808 315.267C126.461 315.267 126.141 315.354 125.847 315.527C125.553 315.701 125.315 315.961 125.133 316.307C124.96 316.645 124.873 317.07 124.873 317.581C124.873 318.093 124.96 318.522 125.133 318.868C125.315 319.206 125.548 319.462 125.834 319.635C126.128 319.809 126.444 319.895 126.782 319.895ZM137.796 321.013C137.173 321.013 136.623 320.866 136.147 320.571C135.671 320.268 135.299 319.861 135.031 319.349C134.771 318.829 134.641 318.24 134.641 317.581C134.641 316.914 134.771 316.325 135.031 315.813C135.299 315.302 135.671 314.899 136.147 314.604C136.632 314.301 137.186 314.149 137.809 314.149C138.319 314.149 138.769 314.253 139.159 314.461C139.548 314.661 139.851 314.947 140.067 315.319V311.497H141.366V320.857H140.197L140.067 319.843C139.938 320.043 139.769 320.233 139.561 320.415C139.353 320.589 139.103 320.732 138.808 320.844C138.514 320.957 138.177 321.013 137.796 321.013ZM138.003 319.882C138.41 319.882 138.769 319.787 139.081 319.596C139.392 319.406 139.63 319.137 139.795 318.79C139.968 318.444 140.054 318.041 140.054 317.581C140.054 317.122 139.968 316.723 139.795 316.385C139.63 316.039 139.392 315.77 139.081 315.579C138.769 315.38 138.41 315.28 138.003 315.28C137.614 315.28 137.264 315.38 136.952 315.579C136.641 315.77 136.398 316.039 136.225 316.385C136.052 316.723 135.965 317.122 135.965 317.581C135.965 318.041 136.052 318.444 136.225 318.79C136.398 319.137 136.641 319.406 136.952 319.596C137.264 319.787 137.614 319.882 138.003 319.882ZM146.1 321.013C145.477 321.013 144.923 320.87 144.439 320.584C143.954 320.298 143.573 319.9 143.296 319.388C143.028 318.877 142.894 318.283 142.894 317.607C142.894 316.914 143.028 316.312 143.296 315.8C143.573 315.28 143.954 314.877 144.439 314.591C144.923 314.297 145.486 314.149 146.126 314.149C146.766 314.149 147.316 314.292 147.775 314.578C148.233 314.864 148.588 315.246 148.839 315.722C149.09 316.19 149.215 316.71 149.215 317.282C149.215 317.369 149.211 317.464 149.203 317.568C149.203 317.664 149.198 317.772 149.19 317.893H143.841V316.97H147.917C147.891 316.424 147.71 316 147.372 315.696C147.035 315.384 146.615 315.228 146.113 315.228C145.758 315.228 145.434 315.311 145.14 315.475C144.845 315.631 144.607 315.865 144.426 316.177C144.253 316.481 144.166 316.866 144.166 317.334V317.698C144.166 318.184 144.253 318.595 144.426 318.933C144.607 319.263 144.845 319.514 145.14 319.687C145.434 319.852 145.754 319.934 146.1 319.934C146.515 319.934 146.857 319.843 147.126 319.661C147.394 319.479 147.593 319.232 147.723 318.92H149.021C148.908 319.319 148.718 319.679 148.45 319.999C148.181 320.311 147.848 320.558 147.45 320.74C147.061 320.922 146.611 321.013 146.1 321.013ZM153.979 320.857V314.305H155.148L155.265 315.54C155.411 315.246 155.602 314.999 155.836 314.799C156.069 314.591 156.342 314.431 156.654 314.318C156.973 314.206 157.337 314.149 157.744 314.149V315.527H157.277C157.008 315.527 156.753 315.562 156.511 315.631C156.268 315.692 156.052 315.8 155.862 315.956C155.68 316.112 155.537 316.325 155.433 316.593C155.329 316.862 155.278 317.196 155.278 317.594V320.857H153.979ZM161.705 321.013C161.082 321.013 160.528 320.87 160.043 320.584C159.558 320.298 159.178 319.9 158.901 319.388C158.633 318.877 158.499 318.283 158.499 317.607C158.499 316.914 158.633 316.312 158.901 315.8C159.178 315.28 159.558 314.877 160.043 314.591C160.528 314.297 161.09 314.149 161.731 314.149C162.372 314.149 162.92 314.292 163.379 314.578C163.838 314.864 164.193 315.246 164.444 315.722C164.695 316.19 164.82 316.71 164.82 317.282C164.82 317.369 164.816 317.464 164.807 317.568C164.807 317.664 164.803 317.772 164.794 317.893H159.446V316.97H163.522C163.496 316.424 163.315 316 162.977 315.696C162.64 315.384 162.22 315.228 161.718 315.228C161.363 315.228 161.038 315.311 160.744 315.475C160.45 315.631 160.212 315.865 160.03 316.177C159.857 316.481 159.771 316.866 159.771 317.334V317.698C159.771 318.184 159.857 318.595 160.03 318.933C160.212 319.263 160.45 319.514 160.744 319.687C161.038 319.852 161.359 319.934 161.705 319.934C162.12 319.934 162.462 319.843 162.73 319.661C162.998 319.479 163.198 319.232 163.328 318.92H164.626C164.513 319.319 164.322 319.679 164.054 319.999C163.786 320.311 163.453 320.558 163.055 320.74C162.666 320.922 162.216 321.013 161.705 321.013ZM160.381 313.746L160.251 312.849L162.938 311.198L163.107 312.264L160.381 313.746ZM166.614 320.857V313.421C166.614 312.971 166.687 312.602 166.834 312.316C166.99 312.03 167.214 311.822 167.509 311.692C167.803 311.562 168.158 311.497 168.574 311.497H169.34V312.602H168.781C168.47 312.602 168.244 312.667 168.106 312.797C167.977 312.919 167.912 313.135 167.912 313.447V320.857H166.614ZM165.653 315.41V314.305H169.482V315.41H165.653ZM173.507 321.013C172.884 321.013 172.33 320.87 171.846 320.584C171.361 320.298 170.98 319.9 170.703 319.388C170.435 318.877 170.301 318.283 170.301 317.607C170.301 316.914 170.435 316.312 170.703 315.8C170.98 315.28 171.361 314.877 171.846 314.591C172.33 314.297 172.893 314.149 173.533 314.149C174.173 314.149 174.723 314.292 175.182 314.578C175.64 314.864 175.995 315.246 176.246 315.722C176.497 316.19 176.623 316.71 176.623 317.282C176.623 317.369 176.618 317.464 176.61 317.568C176.61 317.664 176.605 317.772 176.597 317.893H171.249V316.97H175.325C175.299 316.424 175.117 316 174.779 315.696C174.442 315.384 174.022 315.228 173.52 315.228C173.165 315.228 172.841 315.311 172.547 315.475C172.252 315.631 172.014 315.865 171.833 316.177C171.659 316.481 171.573 316.866 171.573 317.334V317.698C171.573 318.184 171.659 318.595 171.833 318.933C172.014 319.263 172.252 319.514 172.547 319.687C172.841 319.852 173.161 319.934 173.507 319.934C173.923 319.934 174.264 319.843 174.533 319.661C174.801 319.479 175 319.232 175.13 318.92H176.428C176.315 319.319 176.125 319.679 175.857 319.999C175.588 320.311 175.255 320.558 174.857 320.74C174.468 320.922 174.017 321.013 173.507 321.013ZM172.183 313.746L172.053 312.849L174.74 311.198L174.909 312.264L172.183 313.746ZM178.064 320.857V314.305H179.233L179.35 315.54C179.497 315.246 179.687 314.999 179.921 314.799C180.154 314.591 180.427 314.431 180.739 314.318C181.058 314.206 181.422 314.149 181.829 314.149V315.527H181.362C181.094 315.527 180.838 315.562 180.596 315.631C180.354 315.692 180.137 315.8 179.947 315.956C179.765 316.112 179.622 316.325 179.518 316.593C179.415 316.862 179.363 317.196 179.363 317.594V320.857H178.064ZM185.791 321.013C185.168 321.013 184.613 320.87 184.129 320.584C183.644 320.298 183.263 319.9 182.987 319.388C182.718 318.877 182.585 318.283 182.585 317.607C182.585 316.914 182.718 316.312 182.987 315.8C183.263 315.28 183.644 314.877 184.129 314.591C184.613 314.297 185.176 314.149 185.817 314.149C186.457 314.149 187.006 314.292 187.465 314.578C187.923 314.864 188.279 315.246 188.53 315.722C188.78 316.19 188.906 316.71 188.906 317.282C188.906 317.369 188.902 317.464 188.893 317.568C188.893 317.664 188.889 317.772 188.88 317.893H183.532V316.97H187.608C187.582 316.424 187.4 316 187.063 315.696C186.725 315.384 186.305 315.228 185.804 315.228C185.449 315.228 185.124 315.311 184.83 315.475C184.535 315.631 184.298 315.865 184.116 316.177C183.943 316.481 183.857 316.866 183.857 317.334V317.698C183.857 318.184 183.943 318.595 184.116 318.933C184.298 319.263 184.535 319.514 184.83 319.687C185.124 319.852 185.444 319.934 185.791 319.934C186.206 319.934 186.547 319.843 186.816 319.661C187.084 319.479 187.284 319.232 187.413 318.92H188.712C188.598 319.319 188.408 319.679 188.14 319.999C187.872 320.311 187.539 320.558 187.141 320.74C186.751 320.922 186.301 321.013 185.791 321.013ZM190.348 320.857V314.305H191.516L191.594 315.423C191.802 315.033 192.096 314.726 192.477 314.5C192.858 314.266 193.295 314.149 193.788 314.149C194.307 314.149 194.753 314.253 195.125 314.461C195.497 314.669 195.787 314.986 195.995 315.41C196.202 315.826 196.306 316.351 196.306 316.983V320.857H195.008V317.113C195.008 316.507 194.874 316.047 194.606 315.735C194.338 315.423 193.948 315.267 193.438 315.267C193.1 315.267 192.797 315.35 192.529 315.514C192.261 315.67 192.044 315.904 191.88 316.216C191.724 316.528 191.646 316.91 191.646 317.36V320.857H190.348ZM200.991 321.013C200.36 321.013 199.797 320.87 199.304 320.584C198.811 320.29 198.421 319.887 198.136 319.375C197.858 318.864 197.72 318.27 197.72 317.594C197.72 316.91 197.858 316.312 198.136 315.8C198.421 315.28 198.811 314.877 199.304 314.591C199.797 314.297 200.36 314.149 200.991 314.149C201.788 314.149 202.454 314.357 202.99 314.773C203.527 315.189 203.869 315.753 204.016 316.463H202.666C202.58 316.082 202.38 315.787 202.069 315.579C201.766 315.371 201.402 315.267 200.978 315.267C200.633 315.267 200.312 315.358 200.018 315.54C199.724 315.714 199.486 315.974 199.304 316.32C199.131 316.658 199.044 317.079 199.044 317.581C199.044 317.954 199.096 318.288 199.2 318.582C199.304 318.868 199.442 319.111 199.615 319.31C199.797 319.51 200.005 319.661 200.239 319.765C200.472 319.861 200.719 319.908 200.978 319.908C201.264 319.908 201.519 319.865 201.744 319.778C201.978 319.683 202.173 319.544 202.328 319.362C202.493 319.18 202.606 318.964 202.666 318.712H204.016C203.869 319.406 203.527 319.965 202.99 320.389C202.454 320.805 201.788 321.013 200.991 321.013ZM208.494 321.013C207.871 321.013 207.318 320.87 206.833 320.584C206.348 320.298 205.968 319.9 205.691 319.388C205.423 318.877 205.288 318.283 205.288 317.607C205.288 316.914 205.423 316.312 205.691 315.8C205.968 315.28 206.348 314.877 206.833 314.591C207.318 314.297 207.88 314.149 208.52 314.149C209.161 314.149 209.71 314.292 210.169 314.578C210.628 314.864 210.982 315.246 211.233 315.722C211.485 316.19 211.61 316.71 211.61 317.282C211.61 317.369 211.605 317.464 211.597 317.568C211.597 317.664 211.592 317.772 211.584 317.893H206.236V316.97H210.312C210.286 316.424 210.104 316 209.766 315.696C209.429 315.384 209.009 315.228 208.507 315.228C208.152 315.228 207.828 315.311 207.534 315.475C207.24 315.631 207.002 315.865 206.82 316.177C206.646 316.481 206.56 316.866 206.56 317.334V317.698C206.56 318.184 206.646 318.595 206.82 318.933C207.002 319.263 207.24 319.514 207.534 319.687C207.828 319.852 208.149 319.934 208.494 319.934C208.91 319.934 209.252 319.843 209.52 319.661C209.788 319.479 209.987 319.232 210.117 318.92H211.415C211.303 319.319 211.112 319.679 210.844 319.999C210.576 320.311 210.242 320.558 209.844 320.74C209.455 320.922 209.005 321.013 208.494 321.013Z" fill="#111111"/>
<path d="M511.402 329.679H88.5977C83.733 329.679 79.7893 333.628 79.7893 338.5V355.214C79.7893 360.086 83.733 364.036 88.5977 364.036H511.402C516.267 364.036 520.211 360.086 520.211 355.214V338.5C520.211 333.628 516.267 329.679 511.402 329.679Z" fill="white"/>
<path d="M511.402 329.679H88.5977C83.733 329.679 79.7893 333.628 79.7893 338.5V355.214C79.7893 360.086 83.733 364.036 88.5977 364.036H511.402C516.267 364.036 520.211 360.086 520.211 355.214V338.5C520.211 333.628 516.267 329.679 511.402 329.679Z" stroke="#D5D5D5"/>
<path d="M84.2065 398.085C83.3498 398.085 82.6012 397.89 81.9608 397.5C81.3204 397.11 80.8228 396.564 80.468 395.862C80.1132 395.16 79.9358 394.341 79.9358 393.405C79.9358 392.477 80.1132 391.658 80.468 390.948C80.8315 390.237 81.3463 389.682 82.0127 389.284C82.6877 388.876 83.4839 388.673 84.4012 388.673C85.431 388.673 86.292 388.924 86.9844 389.427C87.6767 389.921 88.1223 390.61 88.3214 391.494H86.8416C86.7118 390.991 86.4392 390.597 86.0238 390.311C85.6084 390.016 85.0632 389.869 84.3882 389.869C83.7478 389.869 83.1896 390.012 82.7137 390.298C82.2464 390.584 81.8873 390.991 81.6363 391.52C81.3853 392.048 81.2598 392.677 81.2598 393.405C81.2598 394.141 81.3853 394.774 81.6363 395.303C81.8873 395.831 82.242 396.234 82.7007 396.512C83.1594 396.789 83.6873 396.928 84.2844 396.928C85.2017 396.928 85.8896 396.663 86.3483 396.135C86.8156 395.606 87.0882 394.9 87.1661 394.016H84.6608V393.015H88.4772V397.929H87.2959L87.1791 396.538C86.9714 396.876 86.7291 397.162 86.4522 397.396C86.1839 397.621 85.868 397.794 85.5046 397.916C85.1411 398.028 84.7084 398.085 84.2065 398.085ZM90.1215 397.929V391.377H91.2898L91.4066 392.612C91.5537 392.317 91.7441 392.07 91.9777 391.871C92.2114 391.663 92.484 391.502 92.7955 391.39C93.1157 391.277 93.4792 391.221 93.8859 391.221V392.599H93.4186C93.1504 392.599 92.895 392.633 92.6528 392.703C92.4105 392.763 92.1941 392.872 92.0037 393.028C91.822 393.184 91.6792 393.396 91.5753 393.665C91.4715 393.933 91.4196 394.267 91.4196 394.666V397.929H90.1215ZM97.8735 398.085C97.2591 398.085 96.7052 397.942 96.2119 397.656C95.7274 397.37 95.3422 396.971 95.0566 396.46C94.7798 395.94 94.6412 395.342 94.6412 394.666C94.6412 393.972 94.784 393.37 95.0696 392.859C95.3552 392.339 95.7446 391.936 96.2379 391.65C96.7311 391.364 97.2851 391.221 97.8994 391.221C98.5225 391.221 99.0764 391.364 99.561 391.65C100.046 391.936 100.426 392.334 100.703 392.846C100.989 393.357 101.132 393.959 101.132 394.653C101.132 395.346 100.989 395.948 100.703 396.46C100.426 396.971 100.041 397.37 99.548 397.656C99.0547 397.942 98.4965 398.085 97.8735 398.085ZM97.8735 396.967C98.2283 396.967 98.5485 396.88 98.834 396.707C99.1283 396.533 99.362 396.278 99.535 395.94C99.7167 395.593 99.8076 395.164 99.8076 394.653C99.8076 394.141 99.7211 393.717 99.548 393.379C99.375 393.032 99.1413 392.772 98.847 392.599C98.5614 392.425 98.2456 392.339 97.8994 392.339C97.5533 392.339 97.2331 392.425 96.9388 392.599C96.6446 392.772 96.4066 393.032 96.2249 393.379C96.0519 393.717 95.9653 394.141 95.9653 394.653C95.9653 395.164 96.0519 395.593 96.2249 395.94C96.4066 396.278 96.6403 396.533 96.9259 396.707C97.2202 396.88 97.536 396.967 97.8735 396.967ZM105.06 398.085C104.55 398.085 104.104 397.981 103.723 397.773C103.351 397.565 103.061 397.253 102.853 396.837C102.654 396.421 102.555 395.896 102.555 395.264V391.377H103.853V395.121C103.853 395.736 103.987 396.2 104.255 396.512C104.524 396.824 104.909 396.98 105.411 396.98C105.748 396.98 106.051 396.897 106.319 396.733C106.596 396.568 106.813 396.33 106.968 396.018C107.124 395.706 107.202 395.324 107.202 394.874V391.377H108.5V397.929H107.345L107.254 396.811C107.055 397.209 106.765 397.521 106.384 397.747C106.003 397.972 105.562 398.085 105.06 398.085ZM110.277 400.789V391.377H111.446L111.575 392.391C111.714 392.191 111.887 392.005 112.095 391.832C112.302 391.65 112.549 391.502 112.835 391.39C113.129 391.277 113.471 391.221 113.86 391.221C114.483 391.221 115.028 391.372 115.496 391.676C115.972 391.979 116.339 392.391 116.599 392.911C116.867 393.422 117.001 394.007 117.001 394.666C117.001 395.324 116.867 395.914 116.599 396.434C116.331 396.945 115.959 397.348 115.483 397.643C115.015 397.937 114.47 398.085 113.847 398.085C113.336 398.085 112.886 397.985 112.497 397.786C112.108 397.578 111.8 397.292 111.575 396.928V400.789H110.277ZM113.639 396.954C114.037 396.954 114.388 396.858 114.691 396.668C115.002 396.477 115.245 396.208 115.418 395.862C115.599 395.515 115.69 395.112 115.69 394.653C115.69 394.193 115.599 393.795 115.418 393.457C115.245 393.11 115.002 392.841 114.691 392.651C114.388 392.451 114.037 392.352 113.639 392.352C113.233 392.352 112.873 392.451 112.562 392.651C112.259 392.841 112.021 393.11 111.848 393.457C111.675 393.795 111.588 394.193 111.588 394.653C111.588 395.112 111.675 395.515 111.848 395.862C112.021 396.208 112.259 396.477 112.562 396.668C112.873 396.858 113.233 396.954 113.639 396.954ZM121.477 398.085C120.854 398.085 120.3 397.942 119.815 397.656C119.331 397.37 118.95 396.971 118.673 396.46C118.405 395.948 118.27 395.355 118.27 394.679C118.27 393.985 118.405 393.383 118.673 392.872C118.95 392.352 119.331 391.949 119.815 391.663C120.3 391.368 120.862 391.221 121.503 391.221C122.143 391.221 122.693 391.364 123.151 391.65C123.61 391.936 123.965 392.317 124.216 392.794C124.467 393.262 124.592 393.782 124.592 394.354C124.592 394.44 124.588 394.536 124.579 394.64C124.579 394.735 124.575 394.843 124.566 394.965H119.218V394.042H123.294C123.268 393.496 123.086 393.071 122.749 392.768C122.411 392.456 121.992 392.3 121.49 392.3C121.135 392.3 120.81 392.382 120.516 392.547C120.222 392.703 119.984 392.937 119.802 393.249C119.629 393.552 119.543 393.938 119.543 394.406V394.77C119.543 395.255 119.629 395.667 119.802 396.005C119.984 396.334 120.222 396.585 120.516 396.759C120.81 396.923 121.131 397.006 121.477 397.006C121.892 397.006 122.234 396.915 122.502 396.733C122.77 396.551 122.97 396.304 123.099 395.992H124.397C124.285 396.39 124.094 396.75 123.826 397.071C123.558 397.383 123.225 397.63 122.827 397.812C122.437 397.994 121.987 398.085 121.477 398.085Z" fill="#111111"/>
<path d="M131.705 399.814C131.238 399.363 130.805 398.826 130.407 398.202C130.009 397.586 129.689 396.893 129.446 396.122C129.213 395.35 129.096 394.51 129.096 393.6C129.096 392.69 129.213 391.849 129.446 391.078C129.689 390.306 130.009 389.609 130.407 388.985C130.805 388.361 131.238 387.828 131.705 387.386H132.821V387.49C132.293 388.01 131.831 388.59 131.432 389.232C131.043 389.873 130.736 390.562 130.511 391.299C130.294 392.027 130.186 392.794 130.186 393.6C130.186 394.406 130.294 395.177 130.511 395.914C130.736 396.642 131.047 397.326 131.445 397.968C131.844 398.609 132.302 399.19 132.821 399.71V399.814H131.705ZM134.587 397.929V390.363C134.587 389.947 134.657 389.609 134.795 389.349C134.934 389.08 135.137 388.885 135.405 388.764C135.682 388.634 136.02 388.569 136.418 388.569H137.158V389.505H136.586C136.266 389.505 136.033 389.57 135.885 389.7C135.747 389.83 135.678 390.059 135.678 390.389V397.929H134.587ZM133.588 392.3V391.377H137.326V392.3H133.588ZM140.511 398.085C139.983 398.085 139.542 397.994 139.187 397.812C138.832 397.621 138.568 397.374 138.395 397.071C138.222 396.759 138.135 396.421 138.135 396.057C138.135 395.615 138.248 395.242 138.473 394.939C138.706 394.627 139.031 394.393 139.446 394.237C139.87 394.072 140.368 393.99 140.939 393.99H142.666C142.666 393.582 142.601 393.244 142.471 392.976C142.35 392.698 142.168 392.49 141.926 392.352C141.692 392.213 141.398 392.144 141.043 392.144C140.628 392.144 140.268 392.248 139.966 392.456C139.663 392.664 139.477 392.971 139.407 393.379H138.291C138.343 392.911 138.499 392.521 138.758 392.209C139.027 391.888 139.364 391.645 139.771 391.481C140.178 391.307 140.602 391.221 141.043 391.221C141.649 391.221 142.151 391.333 142.549 391.559C142.955 391.775 143.258 392.083 143.457 392.482C143.656 392.872 143.756 393.335 143.756 393.873V397.929H142.782L142.717 396.772C142.631 396.954 142.518 397.127 142.38 397.292C142.25 397.448 142.094 397.586 141.913 397.708C141.731 397.82 141.523 397.911 141.29 397.981C141.065 398.05 140.805 398.085 140.511 398.085ZM140.679 397.162C140.982 397.162 141.255 397.101 141.497 396.98C141.748 396.85 141.96 396.676 142.133 396.46C142.306 396.234 142.436 395.987 142.523 395.719C142.618 395.45 142.666 395.168 142.666 394.874V394.835H141.03C140.606 394.835 140.264 394.887 140.004 394.991C139.745 395.086 139.559 395.225 139.446 395.407C139.334 395.58 139.278 395.779 139.278 396.005C139.278 396.239 139.329 396.442 139.433 396.616C139.546 396.789 139.706 396.923 139.914 397.019C140.13 397.114 140.385 397.162 140.679 397.162ZM148.389 398.085C147.775 398.085 147.221 397.942 146.728 397.656C146.243 397.37 145.862 396.971 145.586 396.46C145.309 395.94 145.17 395.342 145.17 394.666C145.17 393.972 145.309 393.37 145.586 392.859C145.862 392.347 146.243 391.949 146.728 391.663C147.221 391.368 147.775 391.221 148.389 391.221C149.168 391.221 149.817 391.424 150.336 391.832C150.856 392.23 151.185 392.768 151.323 393.444H150.207C150.12 393.036 149.908 392.72 149.571 392.495C149.233 392.269 148.835 392.157 148.376 392.157C148.004 392.157 147.658 392.252 147.338 392.443C147.018 392.625 146.763 392.902 146.572 393.275C146.382 393.647 146.286 394.107 146.286 394.653C146.286 395.06 146.343 395.424 146.455 395.745C146.568 396.057 146.719 396.317 146.91 396.525C147.1 396.733 147.321 396.893 147.572 397.006C147.831 397.11 148.1 397.162 148.376 397.162C148.688 397.162 148.969 397.114 149.22 397.019C149.471 396.915 149.683 396.763 149.856 396.564C150.029 396.364 150.146 396.13 150.207 395.862H151.323C151.185 396.52 150.851 397.058 150.324 397.474C149.804 397.881 149.16 398.085 148.389 398.085ZM155.247 398.085C154.745 398.085 154.304 397.985 153.923 397.786C153.551 397.586 153.261 397.279 153.053 396.863C152.854 396.447 152.755 395.927 152.755 395.303V391.377H153.845V395.186C153.845 395.836 153.988 396.325 154.273 396.655C154.559 396.984 154.961 397.149 155.481 397.149C155.844 397.149 156.173 397.062 156.467 396.889C156.761 396.707 156.991 396.451 157.155 396.122C157.328 395.784 157.415 395.372 157.415 394.887V391.377H158.505V397.929H157.519L157.454 396.785C157.254 397.192 156.96 397.513 156.571 397.747C156.181 397.972 155.74 398.085 155.247 398.085ZM160.312 397.929V388.569H161.403V397.929H160.312ZM165.772 397.929C165.383 397.929 165.046 397.868 164.76 397.747C164.474 397.625 164.254 397.422 164.098 397.136C163.951 396.841 163.877 396.447 163.877 395.953V392.3H162.735V391.377H163.877L164.02 389.791H164.968V391.377H166.863V392.3H164.968V395.953C164.968 396.36 165.05 396.637 165.214 396.785C165.379 396.923 165.669 396.993 166.084 396.993H166.785V397.929H165.772ZM170.415 398.085C169.887 398.085 169.446 397.994 169.091 397.812C168.736 397.621 168.472 397.374 168.299 397.071C168.126 396.759 168.039 396.421 168.039 396.057C168.039 395.615 168.152 395.242 168.377 394.939C168.611 394.627 168.935 394.393 169.351 394.237C169.774 394.072 170.272 393.99 170.843 393.99H172.57C172.57 393.582 172.505 393.244 172.375 392.976C172.254 392.698 172.072 392.49 171.83 392.352C171.596 392.213 171.302 392.144 170.947 392.144C170.532 392.144 170.173 392.248 169.87 392.456C169.567 392.664 169.381 392.971 169.312 393.379H168.195C168.247 392.911 168.403 392.521 168.663 392.209C168.931 391.888 169.268 391.645 169.675 391.481C170.082 391.307 170.506 391.221 170.947 391.221C171.553 391.221 172.055 391.333 172.453 391.559C172.86 391.775 173.162 392.083 173.362 392.482C173.561 392.872 173.66 393.335 173.66 393.873V397.929H172.687L172.622 396.772C172.536 396.954 172.422 397.127 172.284 397.292C172.154 397.448 171.999 397.586 171.817 397.708C171.635 397.82 171.427 397.911 171.194 397.981C170.969 398.05 170.709 398.085 170.415 398.085ZM170.584 397.162C170.887 397.162 171.16 397.101 171.402 396.98C171.653 396.85 171.864 396.676 172.038 396.46C172.211 396.234 172.341 395.987 172.427 395.719C172.523 395.45 172.57 395.168 172.57 394.874V394.835H170.934C170.51 394.835 170.168 394.887 169.909 394.991C169.649 395.086 169.463 395.225 169.351 395.407C169.238 395.58 169.182 395.779 169.182 396.005C169.182 396.239 169.234 396.442 169.338 396.616C169.45 396.789 169.61 396.923 169.818 397.019C170.034 397.114 170.29 397.162 170.584 397.162ZM177.74 397.929C177.35 397.929 177.013 397.868 176.727 397.747C176.442 397.625 176.221 397.422 176.065 397.136C175.918 396.841 175.845 396.447 175.845 395.953V392.3H174.702V391.377H175.845L175.987 389.791H176.935V391.377H178.83V392.3H176.935V395.953C176.935 396.36 177.017 396.637 177.182 396.785C177.346 396.923 177.636 396.993 178.051 396.993H178.752V397.929H177.74ZM180.356 397.929V391.377H181.447V397.929H180.356ZM180.902 389.986C180.686 389.986 180.504 389.916 180.356 389.778C180.218 389.63 180.149 389.448 180.149 389.232C180.149 389.015 180.218 388.842 180.356 388.712C180.504 388.573 180.686 388.504 180.902 388.504C181.109 388.504 181.286 388.573 181.434 388.712C181.581 388.842 181.655 389.015 181.655 389.232C181.655 389.448 181.581 389.63 181.434 389.778C181.286 389.916 181.109 389.986 180.902 389.986ZM183.734 397.929V390.363C183.734 389.947 183.804 389.609 183.942 389.349C184.081 389.08 184.284 388.885 184.552 388.764C184.829 388.634 185.167 388.569 185.565 388.569H186.304V389.505H185.733C185.413 389.505 185.18 389.57 185.032 389.7C184.894 389.83 184.825 390.059 184.825 390.389V397.929H183.734ZM182.735 392.3V391.377H186.473V392.3H182.735ZM188.483 399.814H187.367V399.71C187.896 399.19 188.354 398.609 188.743 397.968C189.142 397.326 189.449 396.642 189.665 395.914C189.89 395.177 190.002 394.406 190.002 393.6C190.002 392.794 189.89 392.027 189.665 391.299C189.449 390.562 189.142 389.873 188.743 389.232C188.354 388.59 187.896 388.01 187.367 387.49V387.386H188.483C188.96 387.828 189.392 388.361 189.781 388.985C190.18 389.609 190.495 390.306 190.729 391.078C190.972 391.849 191.093 392.69 191.093 393.6C191.093 394.51 190.972 395.35 190.729 396.122C190.495 396.893 190.18 397.586 189.781 398.202C189.392 398.826 188.96 399.363 188.483 399.814Z" fill="#666666"/>
<path d="M511.402 407.679H88.5977C83.733 407.679 79.7893 411.628 79.7893 416.5V432.286C79.7893 437.158 83.733 441.107 88.5977 441.107H511.402C516.267 441.107 520.211 437.158 520.211 432.286V416.5C520.211 411.628 516.267 407.679 511.402 407.679Z" fill="white"/>
<path d="M511.402 407.679H88.5977C83.733 407.679 79.7893 411.628 79.7893 416.5V432.286C79.7893 437.158 83.733 441.107 88.5977 441.107H511.402C516.267 441.107 520.211 437.158 520.211 432.286V416.5C520.211 411.628 516.267 407.679 511.402 407.679Z" stroke="#D5D5D5"/>
<path d="M96.7274 429.678C95.9659 429.678 95.3033 429.54 94.7395 429.262C94.1758 428.984 93.7406 428.598 93.434 428.103C93.1274 427.608 92.9741 427.033 92.9741 426.38H94.2796C94.2796 426.785 94.3735 427.162 94.5615 427.509C94.7494 427.846 95.0214 428.118 95.3774 428.326C95.7434 428.524 96.1934 428.623 96.7274 428.623C97.1922 428.623 97.5879 428.549 97.9143 428.4C98.2506 428.241 98.5028 428.029 98.6709 427.761C98.8489 427.494 98.9379 427.192 98.9379 426.855C98.9379 426.449 98.8489 426.122 98.6709 425.875C98.4928 425.617 98.2555 425.409 97.9588 425.251C97.6621 425.092 97.3208 424.953 96.9351 424.835C96.5494 424.705 96.1389 424.567 95.7038 424.419C94.8928 424.141 94.2945 423.799 93.9087 423.393C93.523 422.977 93.3302 422.438 93.3302 421.774C93.3302 421.209 93.4588 420.714 93.7159 420.288C93.9829 419.862 94.3587 419.531 94.8434 419.293C95.3378 419.045 95.9214 418.921 96.5939 418.921C97.2566 418.921 97.8302 419.045 98.3148 419.293C98.8093 419.541 99.195 419.882 99.472 420.318C99.7489 420.744 99.8873 421.239 99.8873 421.804H98.5818C98.5818 421.517 98.5077 421.234 98.3593 420.957C98.211 420.679 97.9835 420.452 97.6769 420.273C97.3802 420.085 97.0044 419.991 96.5494 419.991C96.1736 419.981 95.8373 420.046 95.5406 420.184C95.2538 420.313 95.0263 420.501 94.8582 420.749C94.6999 420.997 94.6208 421.299 94.6208 421.655C94.6208 421.992 94.6901 422.264 94.8285 422.472C94.9769 422.68 95.1846 422.859 95.4516 423.007C95.7286 423.145 96.0499 423.275 96.4159 423.393C96.7819 423.512 97.1873 423.646 97.6324 423.795C98.1368 423.963 98.5818 424.171 98.9676 424.419C99.3632 424.656 99.6697 424.964 99.8873 425.34C100.115 425.716 100.229 426.197 100.229 426.781C100.229 427.276 100.095 427.747 99.828 428.192C99.5709 428.628 99.1852 428.984 98.6709 429.262C98.1565 429.54 97.5088 429.678 96.7274 429.678ZM105.229 429.678C104.537 429.678 103.919 429.515 103.375 429.188C102.831 428.861 102.401 428.405 102.084 427.821C101.778 427.237 101.624 426.553 101.624 425.771C101.624 424.978 101.778 424.295 102.084 423.72C102.391 423.136 102.816 422.68 103.36 422.353C103.914 422.027 104.547 421.863 105.259 421.863C105.991 421.863 106.614 422.027 107.128 422.353C107.642 422.68 108.033 423.106 108.3 423.631C108.577 424.156 108.716 424.735 108.716 425.369C108.716 425.469 108.716 425.573 108.716 425.681C108.716 425.79 108.711 425.914 108.701 426.053H102.559V425.087H107.484C107.455 424.404 107.227 423.873 106.802 423.497C106.386 423.111 105.862 422.918 105.229 422.918C104.814 422.918 104.423 423.017 104.057 423.215C103.691 423.404 103.395 423.68 103.167 424.047C102.95 424.414 102.841 424.874 102.841 425.429V425.845C102.841 426.459 102.954 426.974 103.182 427.39C103.409 427.796 103.701 428.103 104.057 428.311C104.423 428.519 104.814 428.623 105.229 428.623C105.753 428.623 106.184 428.509 106.52 428.281C106.866 428.044 107.118 427.721 107.277 427.316H108.508C108.379 427.772 108.167 428.177 107.87 428.534C107.573 428.88 107.202 429.158 106.757 429.366C106.322 429.574 105.813 429.678 105.229 429.678ZM103.731 421.403L103.627 420.496L106.639 418.609L106.787 419.679L103.731 421.403ZM110.368 429.5V418.803H111.614V429.5H110.368ZM116.964 429.678C116.272 429.678 115.654 429.515 115.11 429.188C114.566 428.861 114.135 428.405 113.819 427.821C113.512 427.237 113.359 426.553 113.359 425.771C113.359 424.978 113.512 424.295 113.819 423.72C114.126 423.136 114.551 422.68 115.095 422.353C115.649 422.027 116.282 421.863 116.994 421.863C117.726 421.863 118.349 422.027 118.863 422.353C119.377 422.68 119.768 423.106 120.035 423.631C120.312 424.156 120.45 424.735 120.45 425.369C120.45 425.469 120.45 425.573 120.45 425.681C120.45 425.79 120.445 425.914 120.436 426.053H114.294V425.087H119.219C119.189 424.404 118.962 423.873 118.537 423.497C118.121 423.111 117.597 422.918 116.964 422.918C116.549 422.918 116.158 423.017 115.792 423.215C115.426 423.404 115.129 423.68 114.902 424.047C114.684 424.414 114.576 424.874 114.576 425.429V425.845C114.576 426.459 114.689 426.974 114.917 427.39C115.144 427.796 115.436 428.103 115.792 428.311C116.158 428.519 116.549 428.623 116.964 428.623C117.488 428.623 117.918 428.509 118.255 428.281C118.601 428.044 118.853 427.721 119.011 427.316H120.243C120.114 427.772 119.901 428.177 119.605 428.534C119.308 428.88 118.937 429.158 118.492 429.366C118.057 429.574 117.548 429.678 116.964 429.678ZM125.485 429.678C124.783 429.678 124.15 429.515 123.586 429.188C123.032 428.861 122.592 428.405 122.266 427.821C121.949 427.237 121.791 426.553 121.791 425.771C121.791 424.988 121.949 424.304 122.266 423.72C122.592 423.136 123.032 422.68 123.586 422.353C124.15 422.027 124.783 421.863 125.485 421.863C126.375 421.863 127.117 422.096 127.71 422.561C128.304 423.017 128.679 423.631 128.838 424.404H127.562C127.463 423.938 127.221 423.576 126.835 423.319C126.449 423.062 125.994 422.933 125.47 422.933C125.045 422.933 124.649 423.041 124.283 423.26C123.927 423.468 123.635 423.784 123.408 424.211C123.18 424.627 123.067 425.147 123.067 425.771C123.067 426.236 123.131 426.647 123.26 427.004C123.398 427.36 123.576 427.662 123.794 427.91C124.011 428.148 124.263 428.326 124.55 428.445C124.847 428.564 125.154 428.623 125.47 428.623C125.826 428.623 126.147 428.568 126.434 428.46C126.721 428.341 126.963 428.173 127.161 427.955C127.359 427.727 127.493 427.454 127.562 427.137H128.838C128.679 427.9 128.299 428.514 127.695 428.98C127.102 429.445 126.365 429.678 125.485 429.678ZM133.312 429.5C132.867 429.5 132.481 429.43 132.155 429.292C131.829 429.153 131.576 428.92 131.398 428.593C131.23 428.256 131.146 427.806 131.146 427.241V423.096H129.856V422.041H131.146L131.309 420.244H132.392V422.041H134.573V423.096H132.392V427.241C132.392 427.707 132.486 428.024 132.674 428.192C132.862 428.351 133.194 428.43 133.668 428.43H134.469V429.5H133.312ZM136.303 429.5V422.041H137.549V429.5H136.303ZM136.926 420.437C136.679 420.437 136.472 420.358 136.303 420.199C136.145 420.031 136.066 419.823 136.066 419.575C136.066 419.327 136.145 419.129 136.303 418.981C136.472 418.822 136.679 418.743 136.926 418.743C137.164 418.743 137.367 418.822 137.535 418.981C137.703 419.129 137.787 419.327 137.787 419.575C137.787 419.823 137.703 420.031 137.535 420.199C137.367 420.358 137.164 420.437 136.926 420.437ZM143.072 429.678C142.38 429.678 141.757 429.519 141.203 429.203C140.649 428.876 140.209 428.42 139.883 427.836C139.566 427.252 139.408 426.563 139.408 425.771C139.408 424.978 139.571 424.289 139.897 423.705C140.224 423.121 140.664 422.67 141.218 422.353C141.781 422.027 142.409 421.863 143.102 421.863C143.804 421.863 144.432 422.027 144.986 422.353C145.54 422.67 145.975 423.121 146.291 423.705C146.608 424.289 146.766 424.978 146.766 425.771C146.766 426.563 146.603 427.252 146.277 427.836C145.96 428.42 145.52 428.876 144.956 429.203C144.402 429.519 143.774 429.678 143.072 429.678ZM143.072 428.608C143.507 428.608 143.908 428.504 144.274 428.296C144.64 428.078 144.931 427.761 145.149 427.345C145.376 426.919 145.49 426.395 145.49 425.771C145.49 425.136 145.381 424.612 145.164 424.196C144.946 423.78 144.654 423.468 144.289 423.26C143.923 423.041 143.527 422.933 143.102 422.933C142.686 422.933 142.291 423.041 141.915 423.26C141.549 423.468 141.252 423.78 141.025 424.196C140.797 424.612 140.684 425.136 140.684 425.771C140.684 426.395 140.797 426.919 141.025 427.345C141.252 427.761 141.544 428.078 141.9 428.296C142.266 428.504 142.657 428.608 143.072 428.608ZM148.513 429.5V422.041H149.641L149.715 423.349C149.952 422.884 150.289 422.521 150.724 422.264C151.169 421.997 151.673 421.863 152.237 421.863C152.82 421.863 153.325 421.977 153.75 422.205C154.175 422.432 154.507 422.784 154.744 423.26C154.982 423.735 155.1 424.334 155.1 425.057V429.5H153.854V425.191C153.854 424.438 153.691 423.873 153.365 423.497C153.038 423.121 152.568 422.933 151.955 422.933C151.54 422.933 151.164 423.037 150.828 423.245C150.501 423.443 150.239 423.735 150.041 424.121C149.853 424.508 149.759 424.978 149.759 425.533V429.5H148.513ZM157.018 429.5V422.041H158.145L158.22 423.349C158.457 422.884 158.793 422.521 159.228 422.264C159.673 421.997 160.178 421.863 160.742 421.863C161.325 421.863 161.829 421.977 162.255 422.205C162.679 422.432 163.011 422.784 163.249 423.26C163.486 423.735 163.605 424.334 163.605 425.057V429.5H162.359V425.191C162.359 424.438 162.195 423.873 161.869 423.497C161.543 423.121 161.073 422.933 160.46 422.933C160.044 422.933 159.668 423.037 159.332 423.245C159.006 423.443 158.743 423.735 158.546 424.121C158.358 424.508 158.264 424.978 158.264 425.533V429.5H157.018ZM168.815 429.678C168.123 429.678 167.505 429.515 166.96 429.188C166.417 428.861 165.987 428.405 165.67 427.821C165.364 427.237 165.21 426.553 165.21 425.771C165.21 424.978 165.364 424.295 165.67 423.72C165.977 423.136 166.402 422.68 166.945 422.353C167.5 422.027 168.132 421.863 168.844 421.863C169.577 421.863 170.2 422.027 170.714 422.353C171.228 422.68 171.619 423.106 171.886 423.631C172.163 424.156 172.301 424.735 172.301 425.369C172.301 425.469 172.301 425.573 172.301 425.681C172.301 425.79 172.296 425.914 172.286 426.053H166.144V425.087H171.07C171.04 424.404 170.813 423.873 170.387 423.497C169.972 423.111 169.448 422.918 168.815 422.918C168.399 422.918 168.009 423.017 167.643 423.215C167.277 423.404 166.981 423.68 166.753 424.047C166.536 424.414 166.426 424.874 166.426 425.429V425.845C166.426 426.459 166.54 426.974 166.767 427.39C166.996 427.796 167.287 428.103 167.643 428.311C168.009 428.519 168.399 428.623 168.815 428.623C169.339 428.623 169.77 428.509 170.105 428.281C170.452 428.044 170.704 427.721 170.862 427.316H172.093C171.965 427.772 171.752 428.177 171.455 428.534C171.159 428.88 170.788 429.158 170.343 429.366C169.908 429.574 169.399 429.678 168.815 429.678ZM173.953 429.5V422.041H175.081L175.185 423.468C175.352 423.131 175.566 422.844 175.822 422.606C176.09 422.368 176.406 422.185 176.772 422.056C177.138 421.927 177.554 421.863 178.018 421.863V423.171H177.588C177.272 423.171 176.969 423.215 176.683 423.304C176.396 423.383 176.139 423.517 175.912 423.705C175.694 423.884 175.521 424.136 175.392 424.463C175.263 424.79 175.199 425.191 175.199 425.667V429.5H173.953Z" fill="#666666"/>
<path d="M502.877 430.985L498.059 426.162L499.184 425.035L502.877 428.734L506.57 425.035L507.693 426.162L502.877 430.985Z" fill="#333333"/>
<path d="M502.877 417.8L498.059 422.624L499.184 423.75L502.877 420.052L506.57 423.75L507.693 422.624L502.877 417.8Z" fill="#333333"/>
<path d="M397.356 464.679H331.525C327.684 464.679 324.571 467.797 324.571 471.643V492.072C324.571 495.918 327.684 499.036 331.525 499.036H397.356C401.197 499.036 404.31 495.918 404.31 492.072V471.643C404.31 467.797 401.197 464.679 397.356 464.679Z" stroke="#D5D5D5"/>
<path d="M341.16 486.5L344.496 477.4H345.911L349.247 486.5H347.859L345.197 478.96L342.523 486.5H341.16ZM342.666 484.251L343.03 483.211H347.3L347.664 484.251H342.666ZM350.477 486.5V479.948H351.645L351.723 481.066C351.931 480.676 352.226 480.368 352.606 480.143C352.987 479.909 353.424 479.792 353.917 479.792C354.436 479.792 354.882 479.896 355.254 480.104C355.627 480.312 355.916 480.628 356.124 481.053C356.331 481.469 356.435 481.993 356.435 482.626V486.5H355.137V482.756C355.137 482.149 355.004 481.69 354.735 481.378C354.467 481.066 354.077 480.91 353.566 480.91C353.229 480.91 352.927 480.992 352.658 481.157C352.39 481.313 352.174 481.547 352.009 481.859C351.853 482.171 351.775 482.552 351.775 483.003V486.5H350.477ZM358.096 486.5V479.948H359.264L359.342 481.066C359.55 480.676 359.844 480.368 360.225 480.143C360.606 479.909 361.042 479.792 361.536 479.792C362.055 479.792 362.501 479.896 362.873 480.104C363.245 480.312 363.535 480.628 363.742 481.053C363.95 481.469 364.054 481.993 364.054 482.626V486.5H362.756V482.756C362.756 482.149 362.621 481.69 362.353 481.378C362.086 481.066 361.696 480.91 361.185 480.91C360.848 480.91 360.545 480.992 360.277 481.157C360.009 481.313 359.792 481.547 359.627 481.859C359.472 482.171 359.394 482.552 359.394 483.003V486.5H358.096ZM368.116 486.656C367.605 486.656 367.16 486.552 366.779 486.344C366.407 486.136 366.117 485.824 365.909 485.408C365.71 484.992 365.611 484.467 365.611 483.835V479.948H366.909V483.692C366.909 484.307 367.043 484.771 367.311 485.083C367.579 485.395 367.965 485.551 368.467 485.551C368.804 485.551 369.107 485.468 369.375 485.304C369.652 485.139 369.868 484.901 370.024 484.589C370.18 484.277 370.258 483.895 370.258 483.445V479.948H371.556V486.5H370.401L370.31 485.382C370.11 485.78 369.821 486.092 369.44 486.318C369.059 486.543 368.618 486.656 368.116 486.656ZM373.333 486.5V477.14H374.632V486.5H373.333ZM379.373 486.656C378.75 486.656 378.197 486.513 377.712 486.227C377.227 485.941 376.847 485.542 376.569 485.031C376.301 484.519 376.167 483.926 376.167 483.25C376.167 482.556 376.301 481.954 376.569 481.443C376.847 480.923 377.227 480.52 377.712 480.234C378.197 479.939 378.758 479.792 379.399 479.792C380.04 479.792 380.589 479.935 381.048 480.221C381.507 480.507 381.861 480.888 382.112 481.365C382.363 481.833 382.489 482.353 382.489 482.925C382.489 483.011 382.484 483.107 382.476 483.211C382.476 483.306 382.471 483.414 382.463 483.536H377.115V482.613H381.191C381.165 482.067 380.983 481.642 380.645 481.339C380.308 481.027 379.888 480.871 379.386 480.871C379.031 480.871 378.707 480.953 378.413 481.118C378.119 481.274 377.88 481.508 377.699 481.82C377.525 482.123 377.439 482.509 377.439 482.977V483.341C377.439 483.826 377.525 484.238 377.699 484.576C377.88 484.905 378.119 485.156 378.413 485.33C378.707 485.494 379.027 485.577 379.373 485.577C379.789 485.577 380.131 485.486 380.399 485.304C380.667 485.122 380.866 484.875 380.996 484.563H382.294C382.182 484.961 381.991 485.321 381.723 485.642C381.455 485.954 381.121 486.201 380.723 486.383C380.334 486.565 379.884 486.656 379.373 486.656ZM383.93 486.5V479.948H385.099L385.216 481.183C385.363 480.888 385.553 480.641 385.787 480.442C386.02 480.234 386.293 480.073 386.604 479.961C386.925 479.848 387.289 479.792 387.695 479.792V481.17H387.228C386.96 481.17 386.705 481.204 386.462 481.274C386.22 481.334 386.004 481.443 385.813 481.599C385.631 481.755 385.488 481.967 385.384 482.236C385.28 482.504 385.229 482.838 385.229 483.237V486.5H383.93Z" fill="#111111"/>
<path d="M514.184 464.214H424.245C420.149 464.214 416.828 467.54 416.828 471.642V492.071C416.828 496.174 420.149 499.5 424.245 499.5H514.184C518.281 499.5 521.602 496.174 521.602 492.071V471.642C521.602 467.54 518.281 464.214 514.184 464.214Z" fill="#735DF3"/>
<path d="M446.862 486.5L450.198 477.4H451.613L454.949 486.5H453.56L450.899 478.96L448.225 486.5H446.862ZM448.367 484.251L448.731 483.211H453.002L453.365 484.251H448.367ZM454.932 489.36V488.255H455.451C455.763 488.255 455.983 488.19 456.113 488.06C456.243 487.93 456.308 487.714 456.308 487.41V479.948H457.606V487.436C457.606 487.887 457.528 488.255 457.372 488.541C457.226 488.827 457.005 489.035 456.71 489.165C456.416 489.295 456.061 489.36 455.646 489.36H454.932ZM456.97 478.713C456.72 478.713 456.512 478.635 456.347 478.479C456.191 478.323 456.113 478.124 456.113 477.881C456.113 477.647 456.191 477.457 456.347 477.309C456.512 477.153 456.72 477.075 456.97 477.075C457.213 477.075 457.411 477.153 457.567 477.309C457.732 477.457 457.814 477.647 457.814 477.881C457.814 478.124 457.732 478.323 457.567 478.479C457.411 478.635 457.213 478.713 456.97 478.713ZM462.435 486.656C461.82 486.656 461.267 486.513 460.773 486.227C460.288 485.941 459.904 485.543 459.618 485.031C459.341 484.511 459.203 483.913 459.203 483.237C459.203 482.544 459.345 481.942 459.631 481.43C459.917 480.91 460.306 480.507 460.799 480.221C461.293 479.935 461.846 479.792 462.461 479.792C463.084 479.792 463.637 479.935 464.122 480.221C464.606 480.507 464.987 480.906 465.265 481.417C465.55 481.929 465.693 482.531 465.693 483.224C465.693 483.918 465.55 484.52 465.265 485.031C464.987 485.543 464.603 485.941 464.109 486.227C463.616 486.513 463.058 486.656 462.435 486.656ZM462.435 485.538C462.789 485.538 463.11 485.452 463.395 485.278C463.689 485.105 463.923 484.849 464.096 484.511C464.278 484.165 464.369 483.736 464.369 483.224C464.369 482.713 464.282 482.288 464.109 481.95C463.936 481.604 463.702 481.344 463.408 481.17C463.123 480.997 462.807 480.91 462.461 480.91C462.114 480.91 461.794 480.997 461.5 481.17C461.205 481.344 460.968 481.604 460.786 481.95C460.613 482.288 460.527 482.713 460.527 483.224C460.527 483.736 460.613 484.165 460.786 484.511C460.968 484.849 461.202 485.105 461.487 485.278C461.781 485.452 462.097 485.538 462.435 485.538ZM469.621 486.656C469.111 486.656 468.665 486.552 468.284 486.344C467.912 486.136 467.622 485.824 467.414 485.408C467.216 484.992 467.115 484.468 467.115 483.835V479.948H468.413V483.692C468.413 484.308 468.548 484.771 468.816 485.083C469.085 485.395 469.47 485.551 469.971 485.551C470.309 485.551 470.612 485.469 470.88 485.304C471.157 485.14 471.373 484.901 471.529 484.589C471.685 484.277 471.763 483.896 471.763 483.445V479.948H473.061V486.5H471.905L471.814 485.382C471.616 485.781 471.326 486.093 470.945 486.318C470.565 486.544 470.123 486.656 469.621 486.656ZM477.538 486.5C477.123 486.5 476.764 486.435 476.461 486.305C476.158 486.175 475.925 485.959 475.76 485.655C475.596 485.352 475.513 484.94 475.513 484.42V481.053H474.384V479.948H475.513L475.669 478.31H476.811V479.948H478.667V481.053H476.811V484.433C476.811 484.806 476.889 485.062 477.045 485.2C477.201 485.33 477.469 485.395 477.85 485.395H478.603V486.5H477.538ZM482.882 486.656C482.258 486.656 481.704 486.513 481.22 486.227C480.735 485.941 480.354 485.543 480.078 485.031C479.809 484.52 479.675 483.926 479.675 483.25C479.675 482.557 479.809 481.955 480.078 481.443C480.354 480.923 480.735 480.52 481.22 480.234C481.704 479.94 482.267 479.792 482.908 479.792C483.547 479.792 484.097 479.935 484.556 480.221C485.014 480.507 485.369 480.889 485.621 481.365C485.871 481.833 485.997 482.353 485.997 482.925C485.997 483.012 485.992 483.107 485.984 483.211C485.984 483.307 485.979 483.415 485.971 483.536H480.623V482.613H484.699C484.673 482.067 484.491 481.643 484.154 481.339C483.816 481.027 483.396 480.871 482.895 480.871C482.539 480.871 482.215 480.954 481.921 481.118C481.626 481.274 481.389 481.508 481.207 481.82C481.034 482.124 480.947 482.509 480.947 482.977V483.341C480.947 483.827 481.034 484.238 481.207 484.576C481.389 484.906 481.626 485.157 481.921 485.33C482.215 485.495 482.535 485.577 482.882 485.577C483.297 485.577 483.638 485.486 483.907 485.304C484.175 485.122 484.374 484.875 484.504 484.563H485.802C485.689 484.962 485.499 485.322 485.231 485.642C484.962 485.954 484.629 486.201 484.232 486.383C483.842 486.565 483.392 486.656 482.882 486.656ZM487.439 486.5V479.948H488.607L488.724 481.183C488.871 480.889 489.061 480.642 489.295 480.442C489.529 480.234 489.801 480.074 490.113 479.961C490.433 479.849 490.796 479.792 491.203 479.792V481.17H490.736C490.468 481.17 490.212 481.205 489.97 481.274C489.728 481.335 489.511 481.443 489.321 481.599C489.139 481.755 488.996 481.968 488.893 482.236C488.789 482.505 488.737 482.839 488.737 483.237V486.5H487.439Z" fill="white"/>
</g>
<defs>
<clipPath id="clip0_10118_19584">
<rect width="484" height="455" fill="white" transform="translate(58 72)"/>
</clipPath>
</defs>
</svg>
